solid tructron
   facet normal 1.161583e-001 9.932307e-001 3.467847e-015
      outer loop
         vertex 0.000000e+000 4.000000e+000 0.000000e+000
         vertex 6.945927e-001 3.939231e+000 3.000000e+002
         vertex 6.945927e-001 3.939231e+000 0.000000e+000
      endloop
   endfacet
   facet normal 2.305519e-001 9.730600e-001 3.397421e-015
      outer loop
         vertex 6.945927e-001 3.939231e+000 0.000000e+000
         vertex 6.945927e-001 3.939231e+000 3.000000e+002
         vertex 1.368081e+000 3.758770e+000 3.000000e+002
      endloop
   endfacet
   facet normal 2.868663e-001 9.579706e-001 3.344737e-015
      outer loop
         vertex 6.945927e-001 3.939231e+000 0.000000e+000
         vertex 1.368081e+000 3.758770e+000 3.000000e+002
         vertex 1.368081e+000 3.758770e+000 0.000000e+000
      endloop
   endfacet
   facet normal 3.960194e-001 9.182422e-001 3.206025e-015
      outer loop
         vertex 1.368081e+000 3.758770e+000 0.000000e+000
         vertex 1.368081e+000 3.758770e+000 3.000000e+002
         vertex 2.000000e+000 3.464102e+000 3.000000e+002
      endloop
   endfacet
   facet normal 4.488580e-001 8.936031e-001 3.119998e-015
      outer loop
         vertex 1.368081e+000 3.758770e+000 0.000000e+000
         vertex 2.000000e+000 3.464102e+000 3.000000e+002
         vertex 2.000000e+000 3.464102e+000 0.000000e+000
      endloop
   endfacet
   facet normal 5.494540e-001 8.355240e-001 2.917216e-015
      outer loop
         vertex 2.000000e+000 3.464102e+000 0.000000e+000
         vertex 2.000000e+000 3.464102e+000 3.000000e+002
         vertex 2.571151e+000 3.064178e+000 3.000000e+002
      endloop
   endfacet
   facet normal 5.972114e-001 8.020838e-001 2.800461e-015
      outer loop
         vertex 2.000000e+000 3.464102e+000 0.000000e+000
         vertex 2.571151e+000 3.064178e+000 3.000000e+002
         vertex 2.571151e+000 3.064178e+000 0.000000e+000
      endloop
   endfacet
   facet normal 6.861938e-001 7.274188e-001 2.539769e-015
      outer loop
         vertex 2.571151e+000 3.064178e+000 0.000000e+000
         vertex 2.571151e+000 3.064178e+000 3.000000e+002
         vertex 3.064178e+000 2.571151e+000 3.000000e+002
      endloop
   endfacet
   facet normal 7.274188e-001 6.861938e-001 2.395833e-015
      outer loop
         vertex 2.571151e+000 3.064178e+000 0.000000e+000
         vertex 3.064178e+000 2.571151e+000 3.000000e+002
         vertex 3.064178e+000 2.571151e+000 0.000000e+000
      endloop
   endfacet
   facet normal 8.020838e-001 5.972114e-001 2.085152e-015
      outer loop
         vertex 3.064178e+000 2.571151e+000 0.000000e+000
         vertex 3.064178e+000 2.571151e+000 3.000000e+002
         vertex 3.464102e+000 2.000000e+000 3.000000e+002
      endloop
   endfacet
   facet normal 8.355240e-001 5.494540e-001 1.918408e-015
      outer loop
         vertex 3.064178e+000 2.571151e+000 0.000000e+000
         vertex 3.464102e+000 2.000000e+000 3.000000e+002
         vertex 3.464102e+000 2.000000e+000 0.000000e+000
      endloop
   endfacet
   facet normal 8.936031e-001 4.488580e-001 1.567179e-015
      outer loop
         vertex 3.464102e+000 2.000000e+000 0.000000e+000
         vertex 3.464102e+000 2.000000e+000 3.000000e+002
         vertex 3.758770e+000 1.368081e+000 3.000000e+002
      endloop
   endfacet
   facet normal 9.182422e-001 3.960194e-001 1.382694e-015
      outer loop
         vertex 3.464102e+000 2.000000e+000 0.000000e+000
         vertex 3.758770e+000 1.368081e+000 3.000000e+002
         vertex 3.758770e+000 1.368081e+000 0.000000e+000
      endloop
   endfacet
   facet normal 9.579706e-001 2.868663e-001 1.001588e-015
      outer loop
         vertex 3.758770e+000 1.368081e+000 0.000000e+000
         vertex 3.758770e+000 1.368081e+000 3.000000e+002
         vertex 3.939231e+000 6.945927e-001 3.000000e+002
      endloop
   endfacet
   facet normal 9.730600e-001 2.305519e-001 8.049675e-016
      outer loop
         vertex 3.758770e+000 1.368081e+000 0.000000e+000
         vertex 3.939231e+000 6.945927e-001 3.000000e+002
         vertex 3.939231e+000 6.945927e-001 0.000000e+000
      endloop
   endfacet
   facet normal 9.932307e-001 1.161583e-001 4.055644e-016
      outer loop
         vertex 3.939231e+000 6.945927e-001 0.000000e+000
         vertex 3.939231e+000 6.945927e-001 3.000000e+002
         vertex 4.000000e+000 -1.047199e-012 3.000000e+002
      endloop
   endfacet
   facet normal 9.983119e-001 5.807913e-002 2.027822e-016
      outer loop
         vertex 3.939231e+000 6.945927e-001 0.000000e+000
         vertex 4.000000e+000 -1.047199e-012 3.000000e+002
         vertex 4.000000e+000 5.735072e-016 0.000000e+000
      endloop
   endfacet
   facet normal 9.983119e-001 -5.807913e-002 -2.027822e-016
      outer loop
         vertex 4.000000e+000 5.735072e-016 0.000000e+000
         vertex 4.000000e+000 -1.047199e-012 3.000000e+002
         vertex 3.939231e+000 -6.945927e-001 3.000000e+002
      endloop
   endfacet
   facet normal 9.932307e-001 -1.161583e-001 -4.055644e-016
      outer loop
         vertex 4.000000e+000 5.735072e-016 0.000000e+000
         vertex 3.939231e+000 -6.945927e-001 3.000000e+002
         vertex 3.939231e+000 -6.945927e-001 0.000000e+000
      endloop
   endfacet
   facet normal 9.730600e-001 -2.305519e-001 -8.049675e-016
      outer loop
         vertex 3.939231e+000 -6.945927e-001 0.000000e+000
         vertex 3.939231e+000 -6.945927e-001 3.000000e+002
         vertex 3.758770e+000 -1.368081e+000 3.000000e+002
      endloop
   endfacet
   facet normal 9.579706e-001 -2.868663e-001 -1.001588e-015
      outer loop
         vertex 3.939231e+000 -6.945927e-001 0.000000e+000
         vertex 3.758770e+000 -1.368081e+000 3.000000e+002
         vertex 3.758770e+000 -1.368081e+000 0.000000e+000
      endloop
   endfacet
   facet normal 9.182422e-001 -3.960194e-001 -1.382694e-015
      outer loop
         vertex 3.758770e+000 -1.368081e+000 0.000000e+000
         vertex 3.758770e+000 -1.368081e+000 3.000000e+002
         vertex 3.464102e+000 -2.000000e+000 3.000000e+002
      endloop
   endfacet
   facet normal 8.936031e-001 -4.488580e-001 -1.567179e-015
      outer loop
         vertex 3.758770e+000 -1.368081e+000 0.000000e+000
         vertex 3.464102e+000 -2.000000e+000 3.000000e+002
         vertex 3.464102e+000 -2.000000e+000 0.000000e+000
      endloop
   endfacet
   facet normal 8.355240e-001 -5.494540e-001 -1.918408e-015
      outer loop
         vertex 3.464102e+000 -2.000000e+000 0.000000e+000
         vertex 3.464102e+000 -2.000000e+000 3.000000e+002
         vertex 3.064178e+000 -2.571151e+000 3.000000e+002
      endloop
   endfacet
   facet normal 8.020838e-001 -5.972114e-001 -2.085152e-015
      outer loop
         vertex 3.464102e+000 -2.000000e+000 0.000000e+000
         vertex 3.064178e+000 -2.571151e+000 3.000000e+002
         vertex 3.064178e+000 -2.571151e+000 0.000000e+000
      endloop
   endfacet
   facet normal 7.274188e-001 -6.861938e-001 -2.395833e-015
      outer loop
         vertex 3.064178e+000 -2.571151e+000 0.000000e+000
         vertex 3.064178e+000 -2.571151e+000 3.000000e+002
         vertex 2.571151e+000 -3.064178e+000 3.000000e+002
      endloop
   endfacet
   facet normal 6.861938e-001 -7.274188e-001 -2.539769e-015
      outer loop
         vertex 3.064178e+000 -2.571151e+000 0.000000e+000
         vertex 2.571151e+000 -3.064178e+000 3.000000e+002
         vertex 2.571151e+000 -3.064178e+000 0.000000e+000
      endloop
   endfacet
   facet normal 5.972114e-001 -8.020838e-001 -2.800461e-015
      outer loop
         vertex 2.571151e+000 -3.064178e+000 0.000000e+000
         vertex 2.571151e+000 -3.064178e+000 3.000000e+002
         vertex 2.000000e+000 -3.464102e+000 3.000000e+002
      endloop
   endfacet
   facet normal 5.494540e-001 -8.355240e-001 -2.917216e-015
      outer loop
         vertex 2.571151e+000 -3.064178e+000 0.000000e+000
         vertex 2.000000e+000 -3.464102e+000 3.000000e+002
         vertex 2.000000e+000 -3.464102e+000 0.000000e+000
      endloop
   endfacet
   facet normal 4.488580e-001 -8.936031e-001 -3.119999e-015
      outer loop
         vertex 2.000000e+000 -3.464102e+000 0.000000e+000
         vertex 2.000000e+000 -3.464102e+000 3.000000e+002
         vertex 1.368081e+000 -3.758770e+000 3.000000e+002
      endloop
   endfacet
   facet normal 3.960194e-001 -9.182422e-001 -3.206026e-015
      outer loop
         vertex 2.000000e+000 -3.464102e+000 0.000000e+000
         vertex 1.368081e+000 -3.758770e+000 3.000000e+002
         vertex 1.368081e+000 -3.758770e+000 0.000000e+000
      endloop
   endfacet
   facet normal 2.868663e-001 -9.579706e-001 -3.344737e-015
      outer loop
         vertex 1.368081e+000 -3.758770e+000 0.000000e+000
         vertex 1.368081e+000 -3.758770e+000 3.000000e+002
         vertex 6.945927e-001 -3.939231e+000 3.000000e+002
      endloop
   endfacet
   facet normal 2.305519e-001 -9.730600e-001 -3.397421e-015
      outer loop
         vertex 1.368081e+000 -3.758770e+000 0.000000e+000
         vertex 6.945927e-001 -3.939231e+000 3.000000e+002
         vertex 6.945927e-001 -3.939231e+000 0.000000e+000
      endloop
   endfacet
   facet normal 1.161583e-001 -9.932307e-001 -3.467847e-015
      outer loop
         vertex 6.945927e-001 -3.939231e+000 0.000000e+000
         vertex 6.945927e-001 -3.939231e+000 3.000000e+002
         vertex 4.898587e-016 -4.000000e+000 3.000000e+002
      endloop
   endfacet
   facet normal 5.807913e-002 -9.983119e-001 -3.485587e-015
      outer loop
         vertex 6.945927e-001 -3.939231e+000 0.000000e+000
         vertex 4.898587e-016 -4.000000e+000 3.000000e+002
         vertex 4.898587e-016 -4.000000e+000 0.000000e+000
      endloop
   endfacet
   facet normal -5.807913e-002 -9.983119e-001 -3.485587e-015
      outer loop
         vertex 4.898587e-016 -4.000000e+000 0.000000e+000
         vertex 4.898587e-016 -4.000000e+000 3.000000e+002
         vertex -6.945927e-001 -3.939231e+000 3.000000e+002
      endloop
   endfacet
   facet normal -1.161583e-001 -9.932307e-001 -3.467847e-015
      outer loop
         vertex 4.898587e-016 -4.000000e+000 0.000000e+000
         vertex -6.945927e-001 -3.939231e+000 3.000000e+002
         vertex -6.945927e-001 -3.939231e+000 0.000000e+000
      endloop
   endfacet
   facet normal -2.305519e-001 -9.730600e-001 -3.397421e-015
      outer loop
         vertex -6.945927e-001 -3.939231e+000 0.000000e+000
         vertex -6.945927e-001 -3.939231e+000 3.000000e+002
         vertex -1.368081e+000 -3.758770e+000 3.000000e+002
      endloop
   endfacet
   facet normal -2.868663e-001 -9.579706e-001 -3.344737e-015
      outer loop
         vertex -6.945927e-001 -3.939231e+000 0.000000e+000
         vertex -1.368081e+000 -3.758770e+000 3.000000e+002
         vertex -1.368081e+000 -3.758770e+000 0.000000e+000
      endloop
   endfacet
   facet normal -3.960194e-001 -9.182422e-001 -3.206025e-015
      outer loop
         vertex -1.368081e+000 -3.758770e+000 0.000000e+000
         vertex -1.368081e+000 -3.758770e+000 3.000000e+002
         vertex -2.000000e+000 -3.464102e+000 3.000000e+002
      endloop
   endfacet
   facet normal -4.488580e-001 -8.936031e-001 -3.119998e-015
      outer loop
         vertex -1.368081e+000 -3.758770e+000 0.000000e+000
         vertex -2.000000e+000 -3.464102e+000 3.000000e+002
         vertex -2.000000e+000 -3.464102e+000 0.000000e+000
      endloop
   endfacet
   facet normal -5.494540e-001 -8.355240e-001 -2.917216e-015
      outer loop
         vertex -2.000000e+000 -3.464102e+000 0.000000e+000
         vertex -2.000000e+000 -3.464102e+000 3.000000e+002
         vertex -2.571151e+000 -3.064178e+000 3.000000e+002
      endloop
   endfacet
   facet normal -5.972114e-001 -8.020838e-001 -2.800461e-015
      outer loop
         vertex -2.000000e+000 -3.464102e+000 0.000000e+000
         vertex -2.571151e+000 -3.064178e+000 3.000000e+002
         vertex -2.571151e+000 -3.064178e+000 0.000000e+000
      endloop
   endfacet
   facet normal -6.861938e-001 -7.274188e-001 -2.539769e-015
      outer loop
         vertex -2.571151e+000 -3.064178e+000 0.000000e+000
         vertex -2.571151e+000 -3.064178e+000 3.000000e+002
         vertex -3.064178e+000 -2.571151e+000 3.000000e+002
      endloop
   endfacet
   facet normal -7.274188e-001 -6.861938e-001 -2.395833e-015
      outer loop
         vertex -2.571151e+000 -3.064178e+000 0.000000e+000
         vertex -3.064178e+000 -2.571151e+000 3.000000e+002
         vertex -3.064178e+000 -2.571151e+000 0.000000e+000
      endloop
   endfacet
   facet normal -8.020838e-001 -5.972114e-001 -2.085152e-015
      outer loop
         vertex -3.064178e+000 -2.571151e+000 0.000000e+000
         vertex -3.064178e+000 -2.571151e+000 3.000000e+002
         vertex -3.464102e+000 -2.000000e+000 3.000000e+002
      endloop
   endfacet
   facet normal -8.355240e-001 -5.494540e-001 -1.918408e-015
      outer loop
         vertex -3.064178e+000 -2.571151e+000 0.000000e+000
         vertex -3.464102e+000 -2.000000e+000 3.000000e+002
         vertex -3.464102e+000 -2.000000e+000 0.000000e+000
      endloop
   endfacet
   facet normal -8.936031e-001 -4.488580e-001 -1.567179e-015
      outer loop
         vertex -3.464102e+000 -2.000000e+000 0.000000e+000
         vertex -3.464102e+000 -2.000000e+000 3.000000e+002
         vertex -3.758770e+000 -1.368081e+000 3.000000e+002
      endloop
   endfacet
   facet normal -9.182422e-001 -3.960194e-001 -1.382694e-015
      outer loop
         vertex -3.464102e+000 -2.000000e+000 0.000000e+000
         vertex -3.758770e+000 -1.368081e+000 3.000000e+002
         vertex -3.758770e+000 -1.368081e+000 0.000000e+000
      endloop
   endfacet
   facet normal -9.579706e-001 -2.868663e-001 -1.001588e-015
      outer loop
         vertex -3.758770e+000 -1.368081e+000 0.000000e+000
         vertex -3.758770e+000 -1.368081e+000 3.000000e+002
         vertex -3.939231e+000 -6.945927e-001 3.000000e+002
      endloop
   endfacet
   facet normal -9.730600e-001 -2.305519e-001 -8.049675e-016
      outer loop
         vertex -3.758770e+000 -1.368081e+000 0.000000e+000
         vertex -3.939231e+000 -6.945927e-001 3.000000e+002
         vertex -3.939231e+000 -6.945927e-001 0.000000e+000
      endloop
   endfacet
   facet normal -9.932307e-001 -1.161583e-001 -4.055644e-016
      outer loop
         vertex -3.939231e+000 -6.945927e-001 0.000000e+000
         vertex -3.939231e+000 -6.945927e-001 3.000000e+002
         vertex -4.000000e+000 -1.048179e-012 3.000000e+002
      endloop
   endfacet
   facet normal -9.983119e-001 -5.807913e-002 -2.027822e-016
      outer loop
         vertex -3.939231e+000 -6.945927e-001 0.000000e+000
         vertex -4.000000e+000 -1.048179e-012 3.000000e+002
         vertex -4.000000e+000 -4.062102e-016 0.000000e+000
      endloop
   endfacet
   facet normal -9.983119e-001 5.807913e-002 2.027822e-016
      outer loop
         vertex -4.000000e+000 -4.062102e-016 0.000000e+000
         vertex -4.000000e+000 -1.048179e-012 3.000000e+002
         vertex -3.939231e+000 6.945927e-001 3.000000e+002
      endloop
   endfacet
   facet normal -9.932307e-001 1.161583e-001 4.055644e-016
      outer loop
         vertex -4.000000e+000 -4.062102e-016 0.000000e+000
         vertex -3.939231e+000 6.945927e-001 3.000000e+002
         vertex -3.939231e+000 6.945927e-001 0.000000e+000
      endloop
   endfacet
   facet normal -9.730600e-001 2.305519e-001 8.049675e-016
      outer loop
         vertex -3.939231e+000 6.945927e-001 0.000000e+000
         vertex -3.939231e+000 6.945927e-001 3.000000e+002
         vertex -3.758770e+000 1.368081e+000 3.000000e+002
      endloop
   endfacet
   facet normal -9.579706e-001 2.868663e-001 1.001588e-015
      outer loop
         vertex -3.939231e+000 6.945927e-001 0.000000e+000
         vertex -3.758770e+000 1.368081e+000 3.000000e+002
         vertex -3.758770e+000 1.368081e+000 0.000000e+000
      endloop
   endfacet
   facet normal -9.182422e-001 3.960194e-001 1.382694e-015
      outer loop
         vertex -3.758770e+000 1.368081e+000 0.000000e+000
         vertex -3.758770e+000 1.368081e+000 3.000000e+002
         vertex -3.464102e+000 2.000000e+000 3.000000e+002
      endloop
   endfacet
   facet normal -8.936031e-001 4.488580e-001 1.567179e-015
      outer loop
         vertex -3.758770e+000 1.368081e+000 0.000000e+000
         vertex -3.464102e+000 2.000000e+000 3.000000e+002
         vertex -3.464102e+000 2.000000e+000 0.000000e+000
      endloop
   endfacet
   facet normal -8.355240e-001 5.494540e-001 1.918408e-015
      outer loop
         vertex -3.464102e+000 2.000000e+000 0.000000e+000
         vertex -3.464102e+000 2.000000e+000 3.000000e+002
         vertex -3.064178e+000 2.571151e+000 3.000000e+002
      endloop
   endfacet
   facet normal -8.020838e-001 5.972114e-001 2.085152e-015
      outer loop
         vertex -3.464102e+000 2.000000e+000 0.000000e+000
         vertex -3.064178e+000 2.571151e+000 3.000000e+002
         vertex -3.064178e+000 2.571151e+000 0.000000e+000
      endloop
   endfacet
   facet normal -7.274188e-001 6.861938e-001 2.395833e-015
      outer loop
         vertex -3.064178e+000 2.571151e+000 0.000000e+000
         vertex -3.064178e+000 2.571151e+000 3.000000e+002
         vertex -2.571151e+000 3.064178e+000 3.000000e+002
      endloop
   endfacet
   facet normal -6.861938e-001 7.274188e-001 2.539769e-015
      outer loop
         vertex -3.064178e+000 2.571151e+000 0.000000e+000
         vertex -2.571151e+000 3.064178e+000 3.000000e+002
         vertex -2.571151e+000 3.064178e+000 0.000000e+000
      endloop
   endfacet
   facet normal -5.972114e-001 8.020838e-001 2.800461e-015
      outer loop
         vertex -2.571151e+000 3.064178e+000 0.000000e+000
         vertex -2.571151e+000 3.064178e+000 3.000000e+002
         vertex -2.000000e+000 3.464102e+000 3.000000e+002
      endloop
   endfacet
   facet normal -5.494540e-001 8.355240e-001 2.917216e-015
      outer loop
         vertex -2.571151e+000 3.064178e+000 0.000000e+000
         vertex -2.000000e+000 3.464102e+000 3.000000e+002
         vertex -2.000000e+000 3.464102e+000 0.000000e+000
      endloop
   endfacet
   facet normal -4.488580e-001 8.936031e-001 3.119999e-015
      outer loop
         vertex -2.000000e+000 3.464102e+000 0.000000e+000
         vertex -2.000000e+000 3.464102e+000 3.000000e+002
         vertex -1.368081e+000 3.758770e+000 3.000000e+002
      endloop
   endfacet
   facet normal -3.960194e-001 9.182422e-001 3.206026e-015
      outer loop
         vertex -2.000000e+000 3.464102e+000 0.000000e+000
         vertex -1.368081e+000 3.758770e+000 3.000000e+002
         vertex -1.368081e+000 3.758770e+000 0.000000e+000
      endloop
   endfacet
   facet normal -2.868663e-001 9.579706e-001 3.344737e-015
      outer loop
         vertex -1.368081e+000 3.758770e+000 0.000000e+000
         vertex -1.368081e+000 3.758770e+000 3.000000e+002
         vertex -6.945927e-001 3.939231e+000 3.000000e+002
      endloop
   endfacet
   facet normal -2.305519e-001 9.730600e-001 3.397421e-015
      outer loop
         vertex -1.368081e+000 3.758770e+000 0.000000e+000
         vertex -6.945927e-001 3.939231e+000 3.000000e+002
         vertex -6.945927e-001 3.939231e+000 0.000000e+000
      endloop
   endfacet
   facet normal -1.161583e-001 9.932307e-001 3.467847e-015
      outer loop
         vertex -6.945927e-001 3.939231e+000 0.000000e+000
         vertex -6.945927e-001 3.939231e+000 3.000000e+002
         vertex 0.000000e+000 4.000000e+000 3.000000e+002
      endloop
   endfacet
   facet normal -5.807913e-002 9.983119e-001 3.485587e-015
      outer loop
         vertex -6.945927e-001 3.939231e+000 0.000000e+000
         vertex 0.000000e+000 4.000000e+000 3.000000e+002
         vertex 0.000000e+000 4.000000e+000 0.000000e+000
      endloop
   endfacet
   facet normal 5.807913e-002 9.983119e-001 3.485587e-015
      outer loop
         vertex 0.000000e+000 4.000000e+000 0.000000e+000
         vertex 0.000000e+000 4.000000e+000 3.000000e+002
         vertex 6.945927e-001 3.939231e+000 3.000000e+002
      endloop
   endfacet
   facet normal 0.000000e+000 -3.491481e-015 1.000000e+000
      outer loop
         vertex -1.368081e+000 -3.758770e+000 3.000000e+002
         vertex -6.945927e-001 -3.939231e+000 3.000000e+002
         vertex 0.000000e+000 -1.047444e-012 3.000000e+002
      endloop
   endfacet
   facet normal 0.000000e+000 -3.491481e-015 1.000000e+000
      outer loop
         vertex 0.000000e+000 -1.047444e-012 3.000000e+002
         vertex -6.945927e-001 -3.939231e+000 3.000000e+002
         vertex 4.898587e-016 -4.000000e+000 3.000000e+002
      endloop
   endfacet
   facet normal 0.000000e+000 -3.491481e-015 1.000000e+000
      outer loop
         vertex 0.000000e+000 -1.047444e-012 3.000000e+002
         vertex 4.898587e-016 -4.000000e+000 3.000000e+002
         vertex 6.945927e-001 -3.939231e+000 3.000000e+002
      endloop
   endfacet
   facet normal 0.000000e+000 -3.491481e-015 1.000000e+000
      outer loop
         vertex -3.064178e+000 -2.571151e+000 3.000000e+002
         vertex -2.571151e+000 -3.064178e+000 3.000000e+002
         vertex 0.000000e+000 -1.047444e-012 3.000000e+002
      endloop
   endfacet
   facet normal 0.000000e+000 -3.491481e-015 1.000000e+000
      outer loop
         vertex 0.000000e+000 -1.047444e-012 3.000000e+002
         vertex -2.571151e+000 -3.064178e+000 3.000000e+002
         vertex -2.000000e+000 -3.464102e+000 3.000000e+002
      endloop
   endfacet
   facet normal 0.000000e+000 -3.491481e-015 1.000000e+000
      outer loop
         vertex 0.000000e+000 -1.047444e-012 3.000000e+002
         vertex -2.000000e+000 -3.464102e+000 3.000000e+002
         vertex -1.368081e+000 -3.758770e+000 3.000000e+002
      endloop
   endfacet
   facet normal 0.000000e+000 -3.491481e-015 1.000000e+000
      outer loop
         vertex -3.939231e+000 -6.945927e-001 3.000000e+002
         vertex -3.758770e+000 -1.368081e+000 3.000000e+002
         vertex 0.000000e+000 -1.047444e-012 3.000000e+002
      endloop
   endfacet
   facet normal 0.000000e+000 -3.491481e-015 1.000000e+000
      outer loop
         vertex 0.000000e+000 -1.047444e-012 3.000000e+002
         vertex -3.758770e+000 -1.368081e+000 3.000000e+002
         vertex -3.464102e+000 -2.000000e+000 3.000000e+002
      endloop
   endfacet
   facet normal 0.000000e+000 -3.491481e-015 1.000000e+000
      outer loop
         vertex 0.000000e+000 -1.047444e-012 3.000000e+002
         vertex -3.464102e+000 -2.000000e+000 3.000000e+002
         vertex -3.064178e+000 -2.571151e+000 3.000000e+002
      endloop
   endfacet
   facet normal 0.000000e+000 -3.491481e-015 1.000000e+000
      outer loop
         vertex -3.758770e+000 1.368081e+000 3.000000e+002
         vertex -3.939231e+000 6.945927e-001 3.000000e+002
         vertex 0.000000e+000 -1.047444e-012 3.000000e+002
      endloop
   endfacet
   facet normal 0.000000e+000 -3.491481e-015 1.000000e+000
      outer loop
         vertex 0.000000e+000 -1.047444e-012 3.000000e+002
         vertex -3.939231e+000 6.945927e-001 3.000000e+002
         vertex -4.000000e+000 -1.048179e-012 3.000000e+002
      endloop
   endfacet
   facet normal 0.000000e+000 -3.491481e-015 1.000000e+000
      outer loop
         vertex 0.000000e+000 -1.047444e-012 3.000000e+002
         vertex -4.000000e+000 -1.048179e-012 3.000000e+002
         vertex -3.939231e+000 -6.945927e-001 3.000000e+002
      endloop
   endfacet
   facet normal 0.000000e+000 -3.491481e-015 1.000000e+000
      outer loop
         vertex -2.571151e+000 3.064178e+000 3.000000e+002
         vertex -3.064178e+000 2.571151e+000 3.000000e+002
         vertex 0.000000e+000 -1.047444e-012 3.000000e+002
      endloop
   endfacet
   facet normal 0.000000e+000 -3.491481e-015 1.000000e+000
      outer loop
         vertex 0.000000e+000 -1.047444e-012 3.000000e+002
         vertex -3.064178e+000 2.571151e+000 3.000000e+002
         vertex -3.464102e+000 2.000000e+000 3.000000e+002
      endloop
   endfacet
   facet normal 0.000000e+000 -3.491481e-015 1.000000e+000
      outer loop
         vertex 0.000000e+000 -1.047444e-012 3.000000e+002
         vertex -3.464102e+000 2.000000e+000 3.000000e+002
         vertex -3.758770e+000 1.368081e+000 3.000000e+002
      endloop
   endfacet
   facet normal 0.000000e+000 -3.491481e-015 1.000000e+000
      outer loop
         vertex -6.945927e-001 3.939231e+000 3.000000e+002
         vertex -1.368081e+000 3.758770e+000 3.000000e+002
         vertex 0.000000e+000 -1.047444e-012 3.000000e+002
      endloop
   endfacet
   facet normal 0.000000e+000 -3.491481e-015 1.000000e+000
      outer loop
         vertex 0.000000e+000 -1.047444e-012 3.000000e+002
         vertex -1.368081e+000 3.758770e+000 3.000000e+002
         vertex -2.000000e+000 3.464102e+000 3.000000e+002
      endloop
   endfacet
   facet normal 0.000000e+000 -3.491481e-015 1.000000e+000
      outer loop
         vertex 0.000000e+000 -1.047444e-012 3.000000e+002
         vertex -2.000000e+000 3.464102e+000 3.000000e+002
         vertex -2.571151e+000 3.064178e+000 3.000000e+002
      endloop
   endfacet
   facet normal 0.000000e+000 -3.491481e-015 1.000000e+000
      outer loop
         vertex 1.368081e+000 3.758770e+000 3.000000e+002
         vertex 6.945927e-001 3.939231e+000 3.000000e+002
         vertex 0.000000e+000 -1.047444e-012 3.000000e+002
      endloop
   endfacet
   facet normal 0.000000e+000 -3.491481e-015 1.000000e+000
      outer loop
         vertex 0.000000e+000 -1.047444e-012 3.000000e+002
         vertex 6.945927e-001 3.939231e+000 3.000000e+002
         vertex 0.000000e+000 4.000000e+000 3.000000e+002
      endloop
   endfacet
   facet normal 0.000000e+000 -3.491481e-015 1.000000e+000
      outer loop
         vertex 0.000000e+000 -1.047444e-012 3.000000e+002
         vertex 0.000000e+000 4.000000e+000 3.000000e+002
         vertex -6.945927e-001 3.939231e+000 3.000000e+002
      endloop
   endfacet
   facet normal 0.000000e+000 -3.491481e-015 1.000000e+000
      outer loop
         vertex 3.064178e+000 2.571151e+000 3.000000e+002
         vertex 2.571151e+000 3.064178e+000 3.000000e+002
         vertex 0.000000e+000 -1.047444e-012 3.000000e+002
      endloop
   endfacet
   facet normal 0.000000e+000 -3.491481e-015 1.000000e+000
      outer loop
         vertex 0.000000e+000 -1.047444e-012 3.000000e+002
         vertex 2.571151e+000 3.064178e+000 3.000000e+002
         vertex 2.000000e+000 3.464102e+000 3.000000e+002
      endloop
   endfacet
   facet normal 0.000000e+000 -3.491481e-015 1.000000e+000
      outer loop
         vertex 0.000000e+000 -1.047444e-012 3.000000e+002
         vertex 2.000000e+000 3.464102e+000 3.000000e+002
         vertex 1.368081e+000 3.758770e+000 3.000000e+002
      endloop
   endfacet
   facet normal 0.000000e+000 -3.491481e-015 1.000000e+000
      outer loop
         vertex 3.939231e+000 6.945927e-001 3.000000e+002
         vertex 3.758770e+000 1.368081e+000 3.000000e+002
         vertex 0.000000e+000 -1.047444e-012 3.000000e+002
      endloop
   endfacet
   facet normal 0.000000e+000 -3.491481e-015 1.000000e+000
      outer loop
         vertex 0.000000e+000 -1.047444e-012 3.000000e+002
         vertex 3.758770e+000 1.368081e+000 3.000000e+002
         vertex 3.464102e+000 2.000000e+000 3.000000e+002
      endloop
   endfacet
   facet normal 0.000000e+000 -3.491481e-015 1.000000e+000
      outer loop
         vertex 0.000000e+000 -1.047444e-012 3.000000e+002
         vertex 3.464102e+000 2.000000e+000 3.000000e+002
         vertex 3.064178e+000 2.571151e+000 3.000000e+002
      endloop
   endfacet
   facet normal 0.000000e+000 -3.491481e-015 1.000000e+000
      outer loop
         vertex 3.758770e+000 -1.368081e+000 3.000000e+002
         vertex 3.939231e+000 -6.945927e-001 3.000000e+002
         vertex 0.000000e+000 -1.047444e-012 3.000000e+002
      endloop
   endfacet
   facet normal 0.000000e+000 -3.491481e-015 1.000000e+000
      outer loop
         vertex 0.000000e+000 -1.047444e-012 3.000000e+002
         vertex 3.939231e+000 -6.945927e-001 3.000000e+002
         vertex 4.000000e+000 -1.047199e-012 3.000000e+002
      endloop
   endfacet
   facet normal 0.000000e+000 -3.491481e-015 1.000000e+000
      outer loop
         vertex 0.000000e+000 -1.047444e-012 3.000000e+002
         vertex 4.000000e+000 -1.047199e-012 3.000000e+002
         vertex 3.939231e+000 6.945927e-001 3.000000e+002
      endloop
   endfacet
   facet normal 0.000000e+000 -3.491481e-015 1.000000e+000
      outer loop
         vertex 2.571151e+000 -3.064178e+000 3.000000e+002
         vertex 3.064178e+000 -2.571151e+000 3.000000e+002
         vertex 0.000000e+000 -1.047444e-012 3.000000e+002
      endloop
   endfacet
   facet normal 0.000000e+000 -3.491481e-015 1.000000e+000
      outer loop
         vertex 0.000000e+000 -1.047444e-012 3.000000e+002
         vertex 3.064178e+000 -2.571151e+000 3.000000e+002
         vertex 3.464102e+000 -2.000000e+000 3.000000e+002
      endloop
   endfacet
   facet normal 0.000000e+000 -3.491481e-015 1.000000e+000
      outer loop
         vertex 0.000000e+000 -1.047444e-012 3.000000e+002
         vertex 3.464102e+000 -2.000000e+000 3.000000e+002
         vertex 3.758770e+000 -1.368081e+000 3.000000e+002
      endloop
   endfacet
   facet normal 0.000000e+000 -3.491481e-015 1.000000e+000
      outer loop
         vertex 6.945927e-001 -3.939231e+000 3.000000e+002
         vertex 1.368081e+000 -3.758770e+000 3.000000e+002
         vertex 0.000000e+000 -1.047444e-012 3.000000e+002
      endloop
   endfacet
   facet normal 0.000000e+000 -3.491481e-015 1.000000e+000
      outer loop
         vertex 0.000000e+000 -1.047444e-012 3.000000e+002
         vertex 1.368081e+000 -3.758770e+000 3.000000e+002
         vertex 2.000000e+000 -3.464102e+000 3.000000e+002
      endloop
   endfacet
   facet normal 0.000000e+000 -3.491481e-015 1.000000e+000
      outer loop
         vertex 0.000000e+000 -1.047444e-012 3.000000e+002
         vertex 2.000000e+000 -3.464102e+000 3.000000e+002
         vertex 2.571151e+000 -3.064178e+000 3.000000e+002
      endloop
   endfacet
   facet normal 0.000000e+000 3.491481e-015 -1.000000e+000
      outer loop
         vertex 1.368081e+000 -3.758770e+000 -1.312368e-014
         vertex 6.945927e-001 -3.939231e+000 -1.375375e-014
         vertex 0.000000e+000 0.000000e+000 0.000000e+000
      endloop
   endfacet
   facet normal 0.000000e+000 3.491481e-015 -1.000000e+000
      outer loop
         vertex 0.000000e+000 0.000000e+000 0.000000e+000
         vertex 6.945927e-001 -3.939231e+000 -1.375375e-014
         vertex 1.469576e-015 -4.000000e+000 -1.396593e-014
      endloop
   endfacet
   facet normal 0.000000e+000 3.491481e-015 -1.000000e+000
      outer loop
         vertex 0.000000e+000 0.000000e+000 0.000000e+000
         vertex 1.469576e-015 -4.000000e+000 -1.396593e-014
         vertex -6.945927e-001 -3.939231e+000 -1.375375e-014
      endloop
   endfacet
   facet normal 0.000000e+000 3.491481e-015 -1.000000e+000
      outer loop
         vertex 3.064178e+000 -2.571151e+000 -8.977124e-015
         vertex 2.571151e+000 -3.064178e+000 -1.069852e-014
         vertex 0.000000e+000 0.000000e+000 0.000000e+000
      endloop
   endfacet
   facet normal 0.000000e+000 3.491481e-015 -1.000000e+000
      outer loop
         vertex 0.000000e+000 0.000000e+000 0.000000e+000
         vertex 2.571151e+000 -3.064178e+000 -1.069852e-014
         vertex 2.000000e+000 -3.464102e+000 -1.209485e-014
      endloop
   endfacet
   facet normal 0.000000e+000 3.491481e-015 -1.000000e+000
      outer loop
         vertex 0.000000e+000 0.000000e+000 0.000000e+000
         vertex 2.000000e+000 -3.464102e+000 -1.209485e-014
         vertex 1.368081e+000 -3.758770e+000 -1.312368e-014
      endloop
   endfacet
   facet normal 0.000000e+000 3.491481e-015 -1.000000e+000
      outer loop
         vertex 3.939231e+000 -6.945927e-001 -2.425157e-015
         vertex 3.758770e+000 -1.368081e+000 -4.776628e-015
         vertex 0.000000e+000 0.000000e+000 0.000000e+000
      endloop
   endfacet
   facet normal 0.000000e+000 3.491481e-015 -1.000000e+000
      outer loop
         vertex 0.000000e+000 0.000000e+000 0.000000e+000
         vertex 3.758770e+000 -1.368081e+000 -4.776628e-015
         vertex 3.464102e+000 -2.000000e+000 -6.982963e-015
      endloop
   endfacet
   facet normal 0.000000e+000 3.491481e-015 -1.000000e+000
      outer loop
         vertex 0.000000e+000 0.000000e+000 0.000000e+000
         vertex 3.464102e+000 -2.000000e+000 -6.982963e-015
         vertex 3.064178e+000 -2.571151e+000 -8.977124e-015
      endloop
   endfacet
   facet normal 0.000000e+000 3.491481e-015 -1.000000e+000
      outer loop
         vertex 3.758770e+000 1.368081e+000 4.776628e-015
         vertex 3.939231e+000 6.945927e-001 2.425157e-015
         vertex 0.000000e+000 0.000000e+000 0.000000e+000
      endloop
   endfacet
   facet normal 0.000000e+000 3.491481e-015 -1.000000e+000
      outer loop
         vertex 0.000000e+000 0.000000e+000 0.000000e+000
         vertex 3.939231e+000 6.945927e-001 2.425157e-015
         vertex 4.000000e+000 2.449294e-016 8.551663e-031
      endloop
   endfacet
   facet normal 0.000000e+000 3.491481e-015 -1.000000e+000
      outer loop
         vertex 0.000000e+000 0.000000e+000 0.000000e+000
         vertex 4.000000e+000 2.449294e-016 8.551663e-031
         vertex 3.939231e+000 -6.945927e-001 -2.425157e-015
      endloop
   endfacet
   facet normal 0.000000e+000 3.491481e-015 -1.000000e+000
      outer loop
         vertex 2.571151e+000 3.064178e+000 1.069852e-014
         vertex 3.064178e+000 2.571151e+000 8.977124e-015
         vertex 0.000000e+000 0.000000e+000 0.000000e+000
      endloop
   endfacet
   facet normal 0.000000e+000 3.491481e-015 -1.000000e+000
      outer loop
         vertex 0.000000e+000 0.000000e+000 0.000000e+000
         vertex 3.064178e+000 2.571151e+000 8.977124e-015
         vertex 3.464102e+000 2.000000e+000 6.982963e-015
      endloop
   endfacet
   facet normal 0.000000e+000 3.491481e-015 -1.000000e+000
      outer loop
         vertex 0.000000e+000 0.000000e+000 0.000000e+000
         vertex 3.464102e+000 2.000000e+000 6.982963e-015
         vertex 3.758770e+000 1.368081e+000 4.776628e-015
      endloop
   endfacet
   facet normal 0.000000e+000 3.491481e-015 -1.000000e+000
      outer loop
         vertex 6.945927e-001 3.939231e+000 1.375375e-014
         vertex 1.368081e+000 3.758770e+000 1.312368e-014
         vertex 0.000000e+000 0.000000e+000 0.000000e+000
      endloop
   endfacet
   facet normal 0.000000e+000 3.491481e-015 -1.000000e+000
      outer loop
         vertex 0.000000e+000 0.000000e+000 0.000000e+000
         vertex 1.368081e+000 3.758770e+000 1.312368e-014
         vertex 2.000000e+000 3.464102e+000 1.209485e-014
      endloop
   endfacet
   facet normal 0.000000e+000 3.491481e-015 -1.000000e+000
      outer loop
         vertex 0.000000e+000 0.000000e+000 0.000000e+000
         vertex 2.000000e+000 3.464102e+000 1.209485e-014
         vertex 2.571151e+000 3.064178e+000 1.069852e-014
      endloop
   endfacet
   facet normal 0.000000e+000 3.491481e-015 -1.000000e+000
      outer loop
         vertex -1.368081e+000 3.758770e+000 1.312368e-014
         vertex -6.945927e-001 3.939231e+000 1.375375e-014
         vertex 0.000000e+000 0.000000e+000 0.000000e+000
      endloop
   endfacet
   facet normal 0.000000e+000 3.491481e-015 -1.000000e+000
      outer loop
         vertex 0.000000e+000 0.000000e+000 0.000000e+000
         vertex -6.945927e-001 3.939231e+000 1.375375e-014
         vertex 0.000000e+000 4.000000e+000 1.396593e-014
      endloop
   endfacet
   facet normal 0.000000e+000 3.491481e-015 -1.000000e+000
      outer loop
         vertex 0.000000e+000 0.000000e+000 0.000000e+000
         vertex 0.000000e+000 4.000000e+000 1.396593e-014
         vertex 6.945927e-001 3.939231e+000 1.375375e-014
      endloop
   endfacet
   facet normal 0.000000e+000 3.491481e-015 -1.000000e+000
      outer loop
         vertex -3.064178e+000 2.571151e+000 8.977124e-015
         vertex -2.571151e+000 3.064178e+000 1.069852e-014
         vertex 0.000000e+000 0.000000e+000 0.000000e+000
      endloop
   endfacet
   facet normal 0.000000e+000 3.491481e-015 -1.000000e+000
      outer loop
         vertex 0.000000e+000 0.000000e+000 0.000000e+000
         vertex -2.571151e+000 3.064178e+000 1.069852e-014
         vertex -2.000000e+000 3.464102e+000 1.209485e-014
      endloop
   endfacet
   facet normal 0.000000e+000 3.491481e-015 -1.000000e+000
      outer loop
         vertex 0.000000e+000 0.000000e+000 0.000000e+000
         vertex -2.000000e+000 3.464102e+000 1.209485e-014
         vertex -1.368081e+000 3.758770e+000 1.312368e-014
      endloop
   endfacet
   facet normal 0.000000e+000 3.491481e-015 -1.000000e+000
      outer loop
         vertex -3.939231e+000 6.945927e-001 2.425157e-015
         vertex -3.758770e+000 1.368081e+000 4.776628e-015
         vertex 0.000000e+000 0.000000e+000 0.000000e+000
      endloop
   endfacet
   facet normal 0.000000e+000 3.491481e-015 -1.000000e+000
      outer loop
         vertex 0.000000e+000 0.000000e+000 0.000000e+000
         vertex -3.758770e+000 1.368081e+000 4.776628e-015
         vertex -3.464102e+000 2.000000e+000 6.982963e-015
      endloop
   endfacet
   facet normal 0.000000e+000 3.491481e-015 -1.000000e+000
      outer loop
         vertex 0.000000e+000 0.000000e+000 0.000000e+000
         vertex -3.464102e+000 2.000000e+000 6.982963e-015
         vertex -3.064178e+000 2.571151e+000 8.977124e-015
      endloop
   endfacet
   facet normal 0.000000e+000 3.491481e-015 -1.000000e+000
      outer loop
         vertex -3.758770e+000 -1.368081e+000 -4.776628e-015
         vertex -3.939231e+000 -6.945927e-001 -2.425157e-015
         vertex 0.000000e+000 0.000000e+000 0.000000e+000
      endloop
   endfacet
   facet normal 0.000000e+000 3.491481e-015 -1.000000e+000
      outer loop
         vertex 0.000000e+000 0.000000e+000 0.000000e+000
         vertex -3.939231e+000 -6.945927e-001 -2.425157e-015
         vertex -4.000000e+000 -7.347881e-016 -2.565499e-030
      endloop
   endfacet
   facet normal 0.000000e+000 3.491481e-015 -1.000000e+000
      outer loop
         vertex 0.000000e+000 0.000000e+000 0.000000e+000
         vertex -4.000000e+000 -7.347881e-016 -2.565499e-030
         vertex -3.939231e+000 6.945927e-001 2.425157e-015
      endloop
   endfacet
   facet normal 0.000000e+000 3.491481e-015 -1.000000e+000
      outer loop
         vertex -2.571151e+000 -3.064178e+000 -1.069852e-014
         vertex -3.064178e+000 -2.571151e+000 -8.977124e-015
         vertex 0.000000e+000 0.000000e+000 0.000000e+000
      endloop
   endfacet
   facet normal 0.000000e+000 3.491481e-015 -1.000000e+000
      outer loop
         vertex 0.000000e+000 0.000000e+000 0.000000e+000
         vertex -3.064178e+000 -2.571151e+000 -8.977124e-015
         vertex -3.464102e+000 -2.000000e+000 -6.982963e-015
      endloop
   endfacet
   facet normal 0.000000e+000 3.491481e-015 -1.000000e+000
      outer loop
         vertex 0.000000e+000 0.000000e+000 0.000000e+000
         vertex -3.464102e+000 -2.000000e+000 -6.982963e-015
         vertex -3.758770e+000 -1.368081e+000 -4.776628e-015
      endloop
   endfacet
   facet normal 0.000000e+000 3.491481e-015 -1.000000e+000
      outer loop
         vertex -6.945927e-001 -3.939231e+000 -1.375375e-014
         vertex -1.368081e+000 -3.758770e+000 -1.312368e-014
         vertex 0.000000e+000 0.000000e+000 0.000000e+000
      endloop
   endfacet
   facet normal 0.000000e+000 3.491481e-015 -1.000000e+000
      outer loop
         vertex 0.000000e+000 0.000000e+000 0.000000e+000
         vertex -1.368081e+000 -3.758770e+000 -1.312368e-014
         vertex -2.000000e+000 -3.464102e+000 -1.209485e-014
      endloop
   endfacet
   facet normal 0.000000e+000 3.491481e-015 -1.000000e+000
      outer loop
         vertex 0.000000e+000 0.000000e+000 0.000000e+000
         vertex -2.000000e+000 -3.464102e+000 -1.209485e-014
         vertex -2.571151e+000 -3.064178e+000 -1.069852e-014
      endloop
   endfacet
endsolid