solid lk3
   facet normal 1.161583e-001 9.932307e-001 3.467847e-015
      outer loop
         vertex 0.000000e+000 1.000000e+001 4.163336e-014
         vertex 1.736482e+000 9.848078e+000 1.200000e+002
         vertex 1.736482e+000 9.848078e+000 2.775558e-014
      endloop
   endfacet
   facet normal 2.305519e-001 9.730600e-001 3.397421e-015
      outer loop
         vertex 1.736482e+000 9.848078e+000 2.775558e-014
         vertex 1.736482e+000 9.848078e+000 1.200000e+002
         vertex 3.420201e+000 9.396927e+000 1.200000e+002
      endloop
   endfacet
   facet normal 2.868663e-001 9.579706e-001 3.344737e-015
      outer loop
         vertex 1.736482e+000 9.848078e+000 2.775558e-014
         vertex 3.420201e+000 9.396927e+000 1.200000e+002
         vertex 3.420201e+000 9.396927e+000 2.775558e-014
      endloop
   endfacet
   facet normal 3.960194e-001 9.182422e-001 3.206025e-015
      outer loop
         vertex 3.420201e+000 9.396927e+000 2.775558e-014
         vertex 3.420201e+000 9.396927e+000 1.200000e+002
         vertex 5.000000e+000 8.660254e+000 1.200000e+002
      endloop
   endfacet
   facet normal 4.488580e-001 8.936031e-001 3.119998e-015
      outer loop
         vertex 3.420201e+000 9.396927e+000 2.775558e-014
         vertex 5.000000e+000 8.660254e+000 1.200000e+002
         vertex 5.000000e+000 8.660254e+000 2.775558e-014
      endloop
   endfacet
   facet normal 5.494540e-001 8.355240e-001 2.917216e-015
      outer loop
         vertex 5.000000e+000 8.660254e+000 2.775558e-014
         vertex 5.000000e+000 8.660254e+000 1.200000e+002
         vertex 6.427876e+000 7.660444e+000 1.200000e+002
      endloop
   endfacet
   facet normal 5.972114e-001 8.020838e-001 2.800461e-015
      outer loop
         vertex 5.000000e+000 8.660254e+000 2.775558e-014
         vertex 6.427876e+000 7.660444e+000 1.200000e+002
         vertex 6.427876e+000 7.660444e+000 2.775558e-014
      endloop
   endfacet
   facet normal 6.861938e-001 7.274188e-001 2.539769e-015
      outer loop
         vertex 6.427876e+000 7.660444e+000 2.775558e-014
         vertex 6.427876e+000 7.660444e+000 1.200000e+002
         vertex 7.660444e+000 6.427876e+000 1.200000e+002
      endloop
   endfacet
   facet normal 7.274188e-001 6.861938e-001 2.395833e-015
      outer loop
         vertex 6.427876e+000 7.660444e+000 2.775558e-014
         vertex 7.660444e+000 6.427876e+000 1.200000e+002
         vertex 7.660444e+000 6.427876e+000 2.775558e-014
      endloop
   endfacet
   facet normal 8.020838e-001 5.972114e-001 2.085152e-015
      outer loop
         vertex 7.660444e+000 6.427876e+000 2.775558e-014
         vertex 7.660444e+000 6.427876e+000 1.200000e+002
         vertex 8.660254e+000 5.000000e+000 1.200000e+002
      endloop
   endfacet
   facet normal 8.355240e-001 5.494540e-001 1.918408e-015
      outer loop
         vertex 7.660444e+000 6.427876e+000 2.775558e-014
         vertex 8.660254e+000 5.000000e+000 1.200000e+002
         vertex 8.660254e+000 5.000000e+000 1.387779e-014
      endloop
   endfacet
   facet normal 8.936031e-001 4.488580e-001 1.567179e-015
      outer loop
         vertex 8.660254e+000 5.000000e+000 1.387779e-014
         vertex 8.660254e+000 5.000000e+000 1.200000e+002
         vertex 9.396927e+000 3.420201e+000 1.200000e+002
      endloop
   endfacet
   facet normal 9.182422e-001 3.960194e-001 1.382694e-015
      outer loop
         vertex 8.660254e+000 5.000000e+000 1.387779e-014
         vertex 9.396927e+000 3.420201e+000 1.200000e+002
         vertex 9.396927e+000 3.420201e+000 1.387779e-014
      endloop
   endfacet
   facet normal 9.579706e-001 2.868663e-001 1.001588e-015
      outer loop
         vertex 9.396927e+000 3.420201e+000 1.387779e-014
         vertex 9.396927e+000 3.420201e+000 1.200000e+002
         vertex 9.848078e+000 1.736482e+000 1.200000e+002
      endloop
   endfacet
   facet normal 9.730600e-001 2.305519e-001 8.049675e-016
      outer loop
         vertex 9.396927e+000 3.420201e+000 1.387779e-014
         vertex 9.848078e+000 1.736482e+000 1.200000e+002
         vertex 9.848078e+000 1.736482e+000 0.000000e+000
      endloop
   endfacet
   facet normal 9.932307e-001 1.161583e-001 4.055644e-016
      outer loop
         vertex 9.848078e+000 1.736482e+000 0.000000e+000
         vertex 9.848078e+000 1.736482e+000 1.200000e+002
         vertex 1.000000e+001 -4.183654e-013 1.200000e+002
      endloop
   endfacet
   facet normal 9.983119e-001 5.807913e-002 2.027822e-016
      outer loop
         vertex 9.848078e+000 1.736482e+000 0.000000e+000
         vertex 1.000000e+001 -4.183654e-013 1.200000e+002
         vertex 1.000000e+001 1.437644e-015 0.000000e+000
      endloop
   endfacet
   facet normal 9.983119e-001 -5.807913e-002 -2.027822e-016
      outer loop
         vertex 1.000000e+001 1.437644e-015 0.000000e+000
         vertex 1.000000e+001 -4.183654e-013 1.200000e+002
         vertex 9.848078e+000 -1.736482e+000 1.200000e+002
      endloop
   endfacet
   facet normal 9.932307e-001 -1.161583e-001 -4.055644e-016
      outer loop
         vertex 1.000000e+001 1.437644e-015 0.000000e+000
         vertex 9.848078e+000 -1.736482e+000 1.200000e+002
         vertex 9.848078e+000 -1.736482e+000 0.000000e+000
      endloop
   endfacet
   facet normal 9.730600e-001 -2.305519e-001 -8.049675e-016
      outer loop
         vertex 9.848078e+000 -1.736482e+000 0.000000e+000
         vertex 9.848078e+000 -1.736482e+000 1.200000e+002
         vertex 9.396927e+000 -3.420201e+000 1.200000e+002
      endloop
   endfacet
   facet normal 9.579706e-001 -2.868663e-001 -1.001588e-015
      outer loop
         vertex 9.848078e+000 -1.736482e+000 0.000000e+000
         vertex 9.396927e+000 -3.420201e+000 1.200000e+002
         vertex 9.396927e+000 -3.420201e+000 -1.387779e-014
      endloop
   endfacet
   facet normal 9.182422e-001 -3.960194e-001 -1.382694e-015
      outer loop
         vertex 9.396927e+000 -3.420201e+000 -1.387779e-014
         vertex 9.396927e+000 -3.420201e+000 1.200000e+002
         vertex 8.660254e+000 -5.000000e+000 1.200000e+002
      endloop
   endfacet
   facet normal 8.936031e-001 -4.488580e-001 -1.567179e-015
      outer loop
         vertex 9.396927e+000 -3.420201e+000 -1.387779e-014
         vertex 8.660254e+000 -5.000000e+000 1.200000e+002
         vertex 8.660254e+000 -5.000000e+000 -1.387779e-014
      endloop
   endfacet
   facet normal 8.355240e-001 -5.494540e-001 -1.918408e-015
      outer loop
         vertex 8.660254e+000 -5.000000e+000 -1.387779e-014
         vertex 8.660254e+000 -5.000000e+000 1.200000e+002
         vertex 7.660444e+000 -6.427876e+000 1.200000e+002
      endloop
   endfacet
   facet normal 8.020838e-001 -5.972114e-001 -2.085152e-015
      outer loop
         vertex 8.660254e+000 -5.000000e+000 -1.387779e-014
         vertex 7.660444e+000 -6.427876e+000 1.200000e+002
         vertex 7.660444e+000 -6.427876e+000 -2.775558e-014
      endloop
   endfacet
   facet normal 7.274188e-001 -6.861938e-001 -2.395833e-015
      outer loop
         vertex 7.660444e+000 -6.427876e+000 -2.775558e-014
         vertex 7.660444e+000 -6.427876e+000 1.200000e+002
         vertex 6.427876e+000 -7.660444e+000 1.200000e+002
      endloop
   endfacet
   facet normal 6.861938e-001 -7.274188e-001 -2.539769e-015
      outer loop
         vertex 7.660444e+000 -6.427876e+000 -2.775558e-014
         vertex 6.427876e+000 -7.660444e+000 1.200000e+002
         vertex 6.427876e+000 -7.660444e+000 -2.775558e-014
      endloop
   endfacet
   facet normal 5.972114e-001 -8.020838e-001 -2.800461e-015
      outer loop
         vertex 6.427876e+000 -7.660444e+000 -2.775558e-014
         vertex 6.427876e+000 -7.660444e+000 1.200000e+002
         vertex 5.000000e+000 -8.660254e+000 1.200000e+002
      endloop
   endfacet
   facet normal 5.494540e-001 -8.355240e-001 -2.917216e-015
      outer loop
         vertex 6.427876e+000 -7.660444e+000 -2.775558e-014
         vertex 5.000000e+000 -8.660254e+000 1.200000e+002
         vertex 5.000000e+000 -8.660254e+000 -2.775558e-014
      endloop
   endfacet
   facet normal 4.488580e-001 -8.936031e-001 -3.119999e-015
      outer loop
         vertex 5.000000e+000 -8.660254e+000 -2.775558e-014
         vertex 5.000000e+000 -8.660254e+000 1.200000e+002
         vertex 3.420201e+000 -9.396927e+000 1.200000e+002
      endloop
   endfacet
   facet normal 3.960194e-001 -9.182422e-001 -3.206026e-015
      outer loop
         vertex 5.000000e+000 -8.660254e+000 -2.775558e-014
         vertex 3.420201e+000 -9.396927e+000 1.200000e+002
         vertex 3.420201e+000 -9.396927e+000 -2.775558e-014
      endloop
   endfacet
   facet normal 2.868663e-001 -9.579706e-001 -3.344737e-015
      outer loop
         vertex 3.420201e+000 -9.396927e+000 -2.775558e-014
         vertex 3.420201e+000 -9.396927e+000 1.200000e+002
         vertex 1.736482e+000 -9.848078e+000 1.200000e+002
      endloop
   endfacet
   facet normal 2.305519e-001 -9.730600e-001 -3.397421e-015
      outer loop
         vertex 3.420201e+000 -9.396927e+000 -2.775558e-014
         vertex 1.736482e+000 -9.848078e+000 1.200000e+002
         vertex 1.736482e+000 -9.848078e+000 -2.775558e-014
      endloop
   endfacet
   facet normal 1.161583e-001 -9.932307e-001 -3.467847e-015
      outer loop
         vertex 1.736482e+000 -9.848078e+000 -2.775558e-014
         vertex 1.736482e+000 -9.848078e+000 1.200000e+002
         vertex 1.224647e-015 -1.000000e+001 1.200000e+002
      endloop
   endfacet
   facet normal 5.807913e-002 -9.983119e-001 -3.485587e-015
      outer loop
         vertex 1.736482e+000 -9.848078e+000 -2.775558e-014
         vertex 1.224647e-015 -1.000000e+001 1.200000e+002
         vertex 1.224647e-015 -1.000000e+001 -4.163336e-014
      endloop
   endfacet
   facet normal -5.807913e-002 -9.983119e-001 -3.485587e-015
      outer loop
         vertex 1.224647e-015 -1.000000e+001 -4.163336e-014
         vertex 1.224647e-015 -1.000000e+001 1.200000e+002
         vertex -1.736482e+000 -9.848078e+000 1.200000e+002
      endloop
   endfacet
   facet normal -1.161583e-001 -9.932307e-001 -3.467847e-015
      outer loop
         vertex 1.224647e-015 -1.000000e+001 -4.163336e-014
         vertex -1.736482e+000 -9.848078e+000 1.200000e+002
         vertex -1.736482e+000 -9.848078e+000 -2.775558e-014
      endloop
   endfacet
   facet normal -2.305519e-001 -9.730600e-001 -3.397421e-015
      outer loop
         vertex -1.736482e+000 -9.848078e+000 -2.775558e-014
         vertex -1.736482e+000 -9.848078e+000 1.200000e+002
         vertex -3.420201e+000 -9.396927e+000 1.200000e+002
      endloop
   endfacet
   facet normal -2.868663e-001 -9.579706e-001 -3.344737e-015
      outer loop
         vertex -1.736482e+000 -9.848078e+000 -2.775558e-014
         vertex -3.420201e+000 -9.396927e+000 1.200000e+002
         vertex -3.420201e+000 -9.396927e+000 -2.775558e-014
      endloop
   endfacet
   facet normal -3.960194e-001 -9.182422e-001 -3.206025e-015
      outer loop
         vertex -3.420201e+000 -9.396927e+000 -2.775558e-014
         vertex -3.420201e+000 -9.396927e+000 1.200000e+002
         vertex -5.000000e+000 -8.660254e+000 1.200000e+002
      endloop
   endfacet
   facet normal -4.488580e-001 -8.936031e-001 -3.119998e-015
      outer loop
         vertex -3.420201e+000 -9.396927e+000 -2.775558e-014
         vertex -5.000000e+000 -8.660254e+000 1.200000e+002
         vertex -5.000000e+000 -8.660254e+000 -2.775558e-014
      endloop
   endfacet
   facet normal -5.494540e-001 -8.355240e-001 -2.917216e-015
      outer loop
         vertex -5.000000e+000 -8.660254e+000 -2.775558e-014
         vertex -5.000000e+000 -8.660254e+000 1.200000e+002
         vertex -6.427876e+000 -7.660444e+000 1.200000e+002
      endloop
   endfacet
   facet normal -5.972114e-001 -8.020838e-001 -2.800461e-015
      outer loop
         vertex -5.000000e+000 -8.660254e+000 -2.775558e-014
         vertex -6.427876e+000 -7.660444e+000 1.200000e+002
         vertex -6.427876e+000 -7.660444e+000 -2.775558e-014
      endloop
   endfacet
   facet normal -6.861938e-001 -7.274188e-001 -2.539769e-015
      outer loop
         vertex -6.427876e+000 -7.660444e+000 -2.775558e-014
         vertex -6.427876e+000 -7.660444e+000 1.200000e+002
         vertex -7.660444e+000 -6.427876e+000 1.200000e+002
      endloop
   endfacet
   facet normal -7.274188e-001 -6.861938e-001 -2.395833e-015
      outer loop
         vertex -6.427876e+000 -7.660444e+000 -2.775558e-014
         vertex -7.660444e+000 -6.427876e+000 1.200000e+002
         vertex -7.660444e+000 -6.427876e+000 -2.775558e-014
      endloop
   endfacet
   facet normal -8.020838e-001 -5.972114e-001 -2.085152e-015
      outer loop
         vertex -7.660444e+000 -6.427876e+000 -2.775558e-014
         vertex -7.660444e+000 -6.427876e+000 1.200000e+002
         vertex -8.660254e+000 -5.000000e+000 1.200000e+002
      endloop
   endfacet
   facet normal -8.355240e-001 -5.494540e-001 -1.918408e-015
      outer loop
         vertex -7.660444e+000 -6.427876e+000 -2.775558e-014
         vertex -8.660254e+000 -5.000000e+000 1.200000e+002
         vertex -8.660254e+000 -5.000000e+000 -1.387779e-014
      endloop
   endfacet
   facet normal -8.936031e-001 -4.488580e-001 -1.567179e-015
      outer loop
         vertex -8.660254e+000 -5.000000e+000 -1.387779e-014
         vertex -8.660254e+000 -5.000000e+000 1.200000e+002
         vertex -9.396927e+000 -3.420201e+000 1.200000e+002
      endloop
   endfacet
   facet normal -9.182422e-001 -3.960194e-001 -1.382694e-015
      outer loop
         vertex -8.660254e+000 -5.000000e+000 -1.387779e-014
         vertex -9.396927e+000 -3.420201e+000 1.200000e+002
         vertex -9.396927e+000 -3.420201e+000 -1.387779e-014
      endloop
   endfacet
   facet normal -9.579706e-001 -2.868663e-001 -1.001588e-015
      outer loop
         vertex -9.396927e+000 -3.420201e+000 -1.387779e-014
         vertex -9.396927e+000 -3.420201e+000 1.200000e+002
         vertex -9.848078e+000 -1.736482e+000 1.200000e+002
      endloop
   endfacet
   facet normal -9.730600e-001 -2.305519e-001 -8.049675e-016
      outer loop
         vertex -9.396927e+000 -3.420201e+000 -1.387779e-014
         vertex -9.848078e+000 -1.736482e+000 1.200000e+002
         vertex -9.848078e+000 -1.736482e+000 0.000000e+000
      endloop
   endfacet
   facet normal -9.932307e-001 -1.161583e-001 -4.055644e-016
      outer loop
         vertex -9.848078e+000 -1.736482e+000 0.000000e+000
         vertex -9.848078e+000 -1.736482e+000 1.200000e+002
         vertex -1.000000e+001 -4.208147e-013 1.200000e+002
      endloop
   endfacet
   facet normal -9.983119e-001 -5.807913e-002 -2.027822e-016
      outer loop
         vertex -9.848078e+000 -1.736482e+000 0.000000e+000
         vertex -1.000000e+001 -4.208147e-013 1.200000e+002
         vertex -1.000000e+001 -1.011650e-015 0.000000e+000
      endloop
   endfacet
   facet normal -9.983119e-001 5.807913e-002 2.027822e-016
      outer loop
         vertex -1.000000e+001 -1.011650e-015 0.000000e+000
         vertex -1.000000e+001 -4.208147e-013 1.200000e+002
         vertex -9.848078e+000 1.736482e+000 1.200000e+002
      endloop
   endfacet
   facet normal -9.932307e-001 1.161583e-001 4.055644e-016
      outer loop
         vertex -1.000000e+001 -1.011650e-015 0.000000e+000
         vertex -9.848078e+000 1.736482e+000 1.200000e+002
         vertex -9.848078e+000 1.736482e+000 0.000000e+000
      endloop
   endfacet
   facet normal -9.730600e-001 2.305519e-001 8.049675e-016
      outer loop
         vertex -9.848078e+000 1.736482e+000 0.000000e+000
         vertex -9.848078e+000 1.736482e+000 1.200000e+002
         vertex -9.396927e+000 3.420201e+000 1.200000e+002
      endloop
   endfacet
   facet normal -9.579706e-001 2.868663e-001 1.001588e-015
      outer loop
         vertex -9.848078e+000 1.736482e+000 0.000000e+000
         vertex -9.396927e+000 3.420201e+000 1.200000e+002
         vertex -9.396927e+000 3.420201e+000 1.387779e-014
      endloop
   endfacet
   facet normal -9.182422e-001 3.960194e-001 1.382694e-015
      outer loop
         vertex -9.396927e+000 3.420201e+000 1.387779e-014
         vertex -9.396927e+000 3.420201e+000 1.200000e+002
         vertex -8.660254e+000 5.000000e+000 1.200000e+002
      endloop
   endfacet
   facet normal -8.936031e-001 4.488580e-001 1.567179e-015
      outer loop
         vertex -9.396927e+000 3.420201e+000 1.387779e-014
         vertex -8.660254e+000 5.000000e+000 1.200000e+002
         vertex -8.660254e+000 5.000000e+000 1.387779e-014
      endloop
   endfacet
   facet normal -8.355240e-001 5.494540e-001 1.918408e-015
      outer loop
         vertex -8.660254e+000 5.000000e+000 1.387779e-014
         vertex -8.660254e+000 5.000000e+000 1.200000e+002
         vertex -7.660444e+000 6.427876e+000 1.200000e+002
      endloop
   endfacet
   facet normal -8.020838e-001 5.972114e-001 2.085152e-015
      outer loop
         vertex -8.660254e+000 5.000000e+000 1.387779e-014
         vertex -7.660444e+000 6.427876e+000 1.200000e+002
         vertex -7.660444e+000 6.427876e+000 2.775558e-014
      endloop
   endfacet
   facet normal -7.274188e-001 6.861938e-001 2.395833e-015
      outer loop
         vertex -7.660444e+000 6.427876e+000 2.775558e-014
         vertex -7.660444e+000 6.427876e+000 1.200000e+002
         vertex -6.427876e+000 7.660444e+000 1.200000e+002
      endloop
   endfacet
   facet normal -6.861938e-001 7.274188e-001 2.539769e-015
      outer loop
         vertex -7.660444e+000 6.427876e+000 2.775558e-014
         vertex -6.427876e+000 7.660444e+000 1.200000e+002
         vertex -6.427876e+000 7.660444e+000 2.775558e-014
      endloop
   endfacet
   facet normal -5.972114e-001 8.020838e-001 2.800461e-015
      outer loop
         vertex -6.427876e+000 7.660444e+000 2.775558e-014
         vertex -6.427876e+000 7.660444e+000 1.200000e+002
         vertex -5.000000e+000 8.660254e+000 1.200000e+002
      endloop
   endfacet
   facet normal -5.494540e-001 8.355240e-001 2.917216e-015
      outer loop
         vertex -6.427876e+000 7.660444e+000 2.775558e-014
         vertex -5.000000e+000 8.660254e+000 1.200000e+002
         vertex -5.000000e+000 8.660254e+000 2.775558e-014
      endloop
   endfacet
   facet normal -4.488580e-001 8.936031e-001 3.119999e-015
      outer loop
         vertex -5.000000e+000 8.660254e+000 2.775558e-014
         vertex -5.000000e+000 8.660254e+000 1.200000e+002
         vertex -3.420201e+000 9.396927e+000 1.200000e+002
      endloop
   endfacet
   facet normal -3.960194e-001 9.182422e-001 3.206026e-015
      outer loop
         vertex -5.000000e+000 8.660254e+000 2.775558e-014
         vertex -3.420201e+000 9.396927e+000 1.200000e+002
         vertex -3.420201e+000 9.396927e+000 2.775558e-014
      endloop
   endfacet
   facet normal -2.868663e-001 9.579706e-001 3.344737e-015
      outer loop
         vertex -3.420201e+000 9.396927e+000 2.775558e-014
         vertex -3.420201e+000 9.396927e+000 1.200000e+002
         vertex -1.736482e+000 9.848078e+000 1.200000e+002
      endloop
   endfacet
   facet normal -2.305519e-001 9.730600e-001 3.397421e-015
      outer loop
         vertex -3.420201e+000 9.396927e+000 2.775558e-014
         vertex -1.736482e+000 9.848078e+000 1.200000e+002
         vertex -1.736482e+000 9.848078e+000 2.775558e-014
      endloop
   endfacet
   facet normal -1.161583e-001 9.932307e-001 3.467847e-015
      outer loop
         vertex -1.736482e+000 9.848078e+000 2.775558e-014
         vertex -1.736482e+000 9.848078e+000 1.200000e+002
         vertex 0.000000e+000 1.000000e+001 1.200000e+002
      endloop
   endfacet
   facet normal -5.807913e-002 9.983119e-001 3.485587e-015
      outer loop
         vertex -1.736482e+000 9.848078e+000 2.775558e-014
         vertex 0.000000e+000 1.000000e+001 1.200000e+002
         vertex 0.000000e+000 1.000000e+001 4.163336e-014
      endloop
   endfacet
   facet normal 5.807913e-002 9.983119e-001 3.485587e-015
      outer loop
         vertex 0.000000e+000 1.000000e+001 4.163336e-014
         vertex 0.000000e+000 1.000000e+001 1.200000e+002
         vertex 1.736482e+000 9.848078e+000 1.200000e+002
      endloop
   endfacet
   facet normal 0.000000e+000 -3.491481e-015 1.000000e+000
      outer loop
         vertex 3.856726e+000 -4.596266e+000 1.200000e+002
         vertex 6.427876e+000 -7.660444e+000 1.200000e+002
         vertex 4.596266e+000 -3.856726e+000 1.200000e+002
      endloop
   endfacet
   facet normal 0.000000e+000 -3.491481e-015 1.000000e+000
      outer loop
         vertex 4.596266e+000 -3.856726e+000 1.200000e+002
         vertex 6.427876e+000 -7.660444e+000 1.200000e+002
         vertex 7.660444e+000 -6.427876e+000 1.200000e+002
      endloop
   endfacet
   facet normal 0.000000e+000 -3.491481e-015 1.000000e+000
      outer loop
         vertex 4.596266e+000 -3.856726e+000 1.200000e+002
         vertex 7.660444e+000 -6.427876e+000 1.200000e+002
         vertex 5.196152e+000 -3.000000e+000 1.200000e+002
      endloop
   endfacet
   facet normal 0.000000e+000 -3.491481e-015 1.000000e+000
      outer loop
         vertex 5.196152e+000 -3.000000e+000 1.200000e+002
         vertex 7.660444e+000 -6.427876e+000 1.200000e+002
         vertex 8.660254e+000 -5.000000e+000 1.200000e+002
      endloop
   endfacet
   facet normal 0.000000e+000 -3.491481e-015 1.000000e+000
      outer loop
         vertex 5.196152e+000 -3.000000e+000 1.200000e+002
         vertex 8.660254e+000 -5.000000e+000 1.200000e+002
         vertex 5.638155e+000 -2.052121e+000 1.200000e+002
      endloop
   endfacet
   facet normal 0.000000e+000 -3.491481e-015 1.000000e+000
      outer loop
         vertex 5.638155e+000 -2.052121e+000 1.200000e+002
         vertex 8.660254e+000 -5.000000e+000 1.200000e+002
         vertex 9.396927e+000 -3.420201e+000 1.200000e+002
      endloop
   endfacet
   facet normal 0.000000e+000 -3.491481e-015 1.000000e+000
      outer loop
         vertex 5.638155e+000 -2.052121e+000 1.200000e+002
         vertex 9.396927e+000 -3.420201e+000 1.200000e+002
         vertex 5.908846e+000 -1.041889e+000 1.200000e+002
      endloop
   endfacet
   facet normal 0.000000e+000 -3.491481e-015 1.000000e+000
      outer loop
         vertex 5.908846e+000 -1.041889e+000 1.200000e+002
         vertex 9.396927e+000 -3.420201e+000 1.200000e+002
         vertex 9.848078e+000 -1.736482e+000 1.200000e+002
      endloop
   endfacet
   facet normal 0.000000e+000 -3.491481e-015 1.000000e+000
      outer loop
         vertex 5.908846e+000 -1.041889e+000 1.200000e+002
         vertex 9.848078e+000 -1.736482e+000 1.200000e+002
         vertex 6.000000e+000 -4.186104e-013 1.200000e+002
      endloop
   endfacet
   facet normal 0.000000e+000 -3.491481e-015 1.000000e+000
      outer loop
         vertex 6.000000e+000 -4.186104e-013 1.200000e+002
         vertex 9.848078e+000 -1.736482e+000 1.200000e+002
         vertex 1.000000e+001 -4.183654e-013 1.200000e+002
      endloop
   endfacet
   facet normal 0.000000e+000 -3.491481e-015 1.000000e+000
      outer loop
         vertex 6.000000e+000 -4.186104e-013 1.200000e+002
         vertex 1.000000e+001 -4.183654e-013 1.200000e+002
         vertex 5.908846e+000 1.041889e+000 1.200000e+002
      endloop
   endfacet
   facet normal 0.000000e+000 -3.491481e-015 1.000000e+000
      outer loop
         vertex 5.908846e+000 1.041889e+000 1.200000e+002
         vertex 1.000000e+001 -4.183654e-013 1.200000e+002
         vertex 9.848078e+000 1.736482e+000 1.200000e+002
      endloop
   endfacet
   facet normal 0.000000e+000 -3.491481e-015 1.000000e+000
      outer loop
         vertex 5.908846e+000 1.041889e+000 1.200000e+002
         vertex 9.848078e+000 1.736482e+000 1.200000e+002
         vertex 5.638155e+000 2.052121e+000 1.200000e+002
      endloop
   endfacet
   facet normal 0.000000e+000 -3.491481e-015 1.000000e+000
      outer loop
         vertex 5.638155e+000 2.052121e+000 1.200000e+002
         vertex 9.848078e+000 1.736482e+000 1.200000e+002
         vertex 9.396927e+000 3.420201e+000 1.200000e+002
      endloop
   endfacet
   facet normal 0.000000e+000 -3.491481e-015 1.000000e+000
      outer loop
         vertex 5.638155e+000 2.052121e+000 1.200000e+002
         vertex 9.396927e+000 3.420201e+000 1.200000e+002
         vertex 5.196152e+000 3.000000e+000 1.200000e+002
      endloop
   endfacet
   facet normal 0.000000e+000 -3.491481e-015 1.000000e+000
      outer loop
         vertex 5.196152e+000 3.000000e+000 1.200000e+002
         vertex 9.396927e+000 3.420201e+000 1.200000e+002
         vertex 8.660254e+000 5.000000e+000 1.200000e+002
      endloop
   endfacet
   facet normal 0.000000e+000 -3.491481e-015 1.000000e+000
      outer loop
         vertex 5.196152e+000 3.000000e+000 1.200000e+002
         vertex 8.660254e+000 5.000000e+000 1.200000e+002
         vertex 4.596266e+000 3.856726e+000 1.200000e+002
      endloop
   endfacet
   facet normal 0.000000e+000 -3.491481e-015 1.000000e+000
      outer loop
         vertex 4.596266e+000 3.856726e+000 1.200000e+002
         vertex 8.660254e+000 5.000000e+000 1.200000e+002
         vertex 7.660444e+000 6.427876e+000 1.200000e+002
      endloop
   endfacet
   facet normal 0.000000e+000 -3.491481e-015 1.000000e+000
      outer loop
         vertex 4.596266e+000 3.856726e+000 1.200000e+002
         vertex 7.660444e+000 6.427876e+000 1.200000e+002
         vertex 3.856726e+000 4.596266e+000 1.200000e+002
      endloop
   endfacet
   facet normal 0.000000e+000 -3.491481e-015 1.000000e+000
      outer loop
         vertex 3.856726e+000 4.596266e+000 1.200000e+002
         vertex 7.660444e+000 6.427876e+000 1.200000e+002
         vertex 6.427876e+000 7.660444e+000 1.200000e+002
      endloop
   endfacet
   facet normal 0.000000e+000 -3.491481e-015 1.000000e+000
      outer loop
         vertex 3.856726e+000 4.596266e+000 1.200000e+002
         vertex 6.427876e+000 7.660444e+000 1.200000e+002
         vertex 3.000000e+000 5.196152e+000 1.200000e+002
      endloop
   endfacet
   facet normal 0.000000e+000 -3.491481e-015 1.000000e+000
      outer loop
         vertex 3.000000e+000 5.196152e+000 1.200000e+002
         vertex 6.427876e+000 7.660444e+000 1.200000e+002
         vertex 5.000000e+000 8.660254e+000 1.200000e+002
      endloop
   endfacet
   facet normal 0.000000e+000 -3.491481e-015 1.000000e+000
      outer loop
         vertex 3.000000e+000 5.196152e+000 1.200000e+002
         vertex 5.000000e+000 8.660254e+000 1.200000e+002
         vertex 2.052121e+000 5.638155e+000 1.200000e+002
      endloop
   endfacet
   facet normal 0.000000e+000 -3.491481e-015 1.000000e+000
      outer loop
         vertex 2.052121e+000 5.638155e+000 1.200000e+002
         vertex 5.000000e+000 8.660254e+000 1.200000e+002
         vertex 3.420201e+000 9.396927e+000 1.200000e+002
      endloop
   endfacet
   facet normal 0.000000e+000 -3.491481e-015 1.000000e+000
      outer loop
         vertex 2.052121e+000 5.638155e+000 1.200000e+002
         vertex 3.420201e+000 9.396927e+000 1.200000e+002
         vertex 1.041889e+000 5.908846e+000 1.200000e+002
      endloop
   endfacet
   facet normal 0.000000e+000 -3.491481e-015 1.000000e+000
      outer loop
         vertex 1.041889e+000 5.908846e+000 1.200000e+002
         vertex 3.420201e+000 9.396927e+000 1.200000e+002
         vertex 1.736482e+000 9.848078e+000 1.200000e+002
      endloop
   endfacet
   facet normal 0.000000e+000 -3.491481e-015 1.000000e+000
      outer loop
         vertex 1.041889e+000 5.908846e+000 1.200000e+002
         vertex 1.736482e+000 9.848078e+000 1.200000e+002
         vertex 0.000000e+000 6.000000e+000 1.200000e+002
      endloop
   endfacet
   facet normal 0.000000e+000 -3.491481e-015 1.000000e+000
      outer loop
         vertex 0.000000e+000 6.000000e+000 1.200000e+002
         vertex 1.736482e+000 9.848078e+000 1.200000e+002
         vertex 0.000000e+000 1.000000e+001 1.200000e+002
      endloop
   endfacet
   facet normal 0.000000e+000 -3.491481e-015 1.000000e+000
      outer loop
         vertex 0.000000e+000 6.000000e+000 1.200000e+002
         vertex 0.000000e+000 1.000000e+001 1.200000e+002
         vertex -1.041889e+000 5.908846e+000 1.200000e+002
      endloop
   endfacet
   facet normal 0.000000e+000 -3.491481e-015 1.000000e+000
      outer loop
         vertex -1.041889e+000 5.908846e+000 1.200000e+002
         vertex 0.000000e+000 1.000000e+001 1.200000e+002
         vertex -1.736482e+000 9.848078e+000 1.200000e+002
      endloop
   endfacet
   facet normal 0.000000e+000 -3.491481e-015 1.000000e+000
      outer loop
         vertex -1.041889e+000 5.908846e+000 1.200000e+002
         vertex -1.736482e+000 9.848078e+000 1.200000e+002
         vertex -2.052121e+000 5.638155e+000 1.200000e+002
      endloop
   endfacet
   facet normal 0.000000e+000 -3.491481e-015 1.000000e+000
      outer loop
         vertex -2.052121e+000 5.638155e+000 1.200000e+002
         vertex -1.736482e+000 9.848078e+000 1.200000e+002
         vertex -3.420201e+000 9.396927e+000 1.200000e+002
      endloop
   endfacet
   facet normal 0.000000e+000 -3.491481e-015 1.000000e+000
      outer loop
         vertex -2.052121e+000 5.638155e+000 1.200000e+002
         vertex -3.420201e+000 9.396927e+000 1.200000e+002
         vertex -3.000000e+000 5.196152e+000 1.200000e+002
      endloop
   endfacet
   facet normal 0.000000e+000 -3.491481e-015 1.000000e+000
      outer loop
         vertex -3.000000e+000 5.196152e+000 1.200000e+002
         vertex -3.420201e+000 9.396927e+000 1.200000e+002
         vertex -5.000000e+000 8.660254e+000 1.200000e+002
      endloop
   endfacet
   facet normal 0.000000e+000 -3.491481e-015 1.000000e+000
      outer loop
         vertex -3.000000e+000 5.196152e+000 1.200000e+002
         vertex -5.000000e+000 8.660254e+000 1.200000e+002
         vertex -3.856726e+000 4.596266e+000 1.200000e+002
      endloop
   endfacet
   facet normal 0.000000e+000 -3.491481e-015 1.000000e+000
      outer loop
         vertex -3.856726e+000 4.596266e+000 1.200000e+002
         vertex -5.000000e+000 8.660254e+000 1.200000e+002
         vertex -6.427876e+000 7.660444e+000 1.200000e+002
      endloop
   endfacet
   facet normal 0.000000e+000 -3.491481e-015 1.000000e+000
      outer loop
         vertex -3.856726e+000 4.596266e+000 1.200000e+002
         vertex -6.427876e+000 7.660444e+000 1.200000e+002
         vertex -4.596266e+000 3.856726e+000 1.200000e+002
      endloop
   endfacet
   facet normal 0.000000e+000 -3.491481e-015 1.000000e+000
      outer loop
         vertex -4.596266e+000 3.856726e+000 1.200000e+002
         vertex -6.427876e+000 7.660444e+000 1.200000e+002
         vertex -7.660444e+000 6.427876e+000 1.200000e+002
      endloop
   endfacet
   facet normal 0.000000e+000 -3.491481e-015 1.000000e+000
      outer loop
         vertex -4.596266e+000 3.856726e+000 1.200000e+002
         vertex -7.660444e+000 6.427876e+000 1.200000e+002
         vertex -5.196152e+000 3.000000e+000 1.200000e+002
      endloop
   endfacet
   facet normal 0.000000e+000 -3.491481e-015 1.000000e+000
      outer loop
         vertex -5.196152e+000 3.000000e+000 1.200000e+002
         vertex -7.660444e+000 6.427876e+000 1.200000e+002
         vertex -8.660254e+000 5.000000e+000 1.200000e+002
      endloop
   endfacet
   facet normal 0.000000e+000 -3.491481e-015 1.000000e+000
      outer loop
         vertex -5.196152e+000 3.000000e+000 1.200000e+002
         vertex -8.660254e+000 5.000000e+000 1.200000e+002
         vertex -5.638155e+000 2.052121e+000 1.200000e+002
      endloop
   endfacet
   facet normal 0.000000e+000 -3.491481e-015 1.000000e+000
      outer loop
         vertex -5.638155e+000 2.052121e+000 1.200000e+002
         vertex -8.660254e+000 5.000000e+000 1.200000e+002
         vertex -9.396927e+000 3.420201e+000 1.200000e+002
      endloop
   endfacet
   facet normal 0.000000e+000 -3.491481e-015 1.000000e+000
      outer loop
         vertex -5.638155e+000 2.052121e+000 1.200000e+002
         vertex -9.396927e+000 3.420201e+000 1.200000e+002
         vertex -5.908846e+000 1.041889e+000 1.200000e+002
      endloop
   endfacet
   facet normal 0.000000e+000 -3.491481e-015 1.000000e+000
      outer loop
         vertex -5.908846e+000 1.041889e+000 1.200000e+002
         vertex -9.396927e+000 3.420201e+000 1.200000e+002
         vertex -9.848078e+000 1.736482e+000 1.200000e+002
      endloop
   endfacet
   facet normal 0.000000e+000 -3.491481e-015 1.000000e+000
      outer loop
         vertex -5.908846e+000 1.041889e+000 1.200000e+002
         vertex -9.848078e+000 1.736482e+000 1.200000e+002
         vertex -6.000000e+000 -4.200800e-013 1.200000e+002
      endloop
   endfacet
   facet normal 0.000000e+000 -3.491481e-015 1.000000e+000
      outer loop
         vertex -6.000000e+000 -4.200800e-013 1.200000e+002
         vertex -9.848078e+000 1.736482e+000 1.200000e+002
         vertex -1.000000e+001 -4.208147e-013 1.200000e+002
      endloop
   endfacet
   facet normal 0.000000e+000 -3.491481e-015 1.000000e+000
      outer loop
         vertex -6.000000e+000 -4.200800e-013 1.200000e+002
         vertex -1.000000e+001 -4.208147e-013 1.200000e+002
         vertex -5.908846e+000 -1.041889e+000 1.200000e+002
      endloop
   endfacet
   facet normal 0.000000e+000 -3.491481e-015 1.000000e+000
      outer loop
         vertex -5.908846e+000 -1.041889e+000 1.200000e+002
         vertex -1.000000e+001 -4.208147e-013 1.200000e+002
         vertex -9.848078e+000 -1.736482e+000 1.200000e+002
      endloop
   endfacet
   facet normal 0.000000e+000 -3.491481e-015 1.000000e+000
      outer loop
         vertex -5.908846e+000 -1.041889e+000 1.200000e+002
         vertex -9.848078e+000 -1.736482e+000 1.200000e+002
         vertex -5.638155e+000 -2.052121e+000 1.200000e+002
      endloop
   endfacet
   facet normal 0.000000e+000 -3.491481e-015 1.000000e+000
      outer loop
         vertex -5.638155e+000 -2.052121e+000 1.200000e+002
         vertex -9.848078e+000 -1.736482e+000 1.200000e+002
         vertex -9.396927e+000 -3.420201e+000 1.200000e+002
      endloop
   endfacet
   facet normal 0.000000e+000 -3.491481e-015 1.000000e+000
      outer loop
         vertex -5.638155e+000 -2.052121e+000 1.200000e+002
         vertex -9.396927e+000 -3.420201e+000 1.200000e+002
         vertex -5.196152e+000 -3.000000e+000 1.200000e+002
      endloop
   endfacet
   facet normal 0.000000e+000 -3.491481e-015 1.000000e+000
      outer loop
         vertex -5.196152e+000 -3.000000e+000 1.200000e+002
         vertex -9.396927e+000 -3.420201e+000 1.200000e+002
         vertex -8.660254e+000 -5.000000e+000 1.200000e+002
      endloop
   endfacet
   facet normal 0.000000e+000 -3.491481e-015 1.000000e+000
      outer loop
         vertex -5.196152e+000 -3.000000e+000 1.200000e+002
         vertex -8.660254e+000 -5.000000e+000 1.200000e+002
         vertex -4.596266e+000 -3.856726e+000 1.200000e+002
      endloop
   endfacet
   facet normal 0.000000e+000 -3.491481e-015 1.000000e+000
      outer loop
         vertex -4.596266e+000 -3.856726e+000 1.200000e+002
         vertex -8.660254e+000 -5.000000e+000 1.200000e+002
         vertex -7.660444e+000 -6.427876e+000 1.200000e+002
      endloop
   endfacet
   facet normal 0.000000e+000 -3.491481e-015 1.000000e+000
      outer loop
         vertex -4.596266e+000 -3.856726e+000 1.200000e+002
         vertex -7.660444e+000 -6.427876e+000 1.200000e+002
         vertex -3.856726e+000 -4.596266e+000 1.200000e+002
      endloop
   endfacet
   facet normal 0.000000e+000 -3.491481e-015 1.000000e+000
      outer loop
         vertex -3.856726e+000 -4.596266e+000 1.200000e+002
         vertex -7.660444e+000 -6.427876e+000 1.200000e+002
         vertex -6.427876e+000 -7.660444e+000 1.200000e+002
      endloop
   endfacet
   facet normal 0.000000e+000 -3.491481e-015 1.000000e+000
      outer loop
         vertex -3.856726e+000 -4.596266e+000 1.200000e+002
         vertex -6.427876e+000 -7.660444e+000 1.200000e+002
         vertex -3.000000e+000 -5.196152e+000 1.200000e+002
      endloop
   endfacet
   facet normal 0.000000e+000 -3.491481e-015 1.000000e+000
      outer loop
         vertex -3.000000e+000 -5.196152e+000 1.200000e+002
         vertex -6.427876e+000 -7.660444e+000 1.200000e+002
         vertex -5.000000e+000 -8.660254e+000 1.200000e+002
      endloop
   endfacet
   facet normal 0.000000e+000 -3.491481e-015 1.000000e+000
      outer loop
         vertex -3.000000e+000 -5.196152e+000 1.200000e+002
         vertex -5.000000e+000 -8.660254e+000 1.200000e+002
         vertex -2.052121e+000 -5.638155e+000 1.200000e+002
      endloop
   endfacet
   facet normal 0.000000e+000 -3.491481e-015 1.000000e+000
      outer loop
         vertex -2.052121e+000 -5.638155e+000 1.200000e+002
         vertex -5.000000e+000 -8.660254e+000 1.200000e+002
         vertex -3.420201e+000 -9.396927e+000 1.200000e+002
      endloop
   endfacet
   facet normal 0.000000e+000 -3.491481e-015 1.000000e+000
      outer loop
         vertex -2.052121e+000 -5.638155e+000 1.200000e+002
         vertex -3.420201e+000 -9.396927e+000 1.200000e+002
         vertex -1.041889e+000 -5.908846e+000 1.200000e+002
      endloop
   endfacet
   facet normal 0.000000e+000 -3.491481e-015 1.000000e+000
      outer loop
         vertex -1.041889e+000 -5.908846e+000 1.200000e+002
         vertex -3.420201e+000 -9.396927e+000 1.200000e+002
         vertex -1.736482e+000 -9.848078e+000 1.200000e+002
      endloop
   endfacet
   facet normal 0.000000e+000 -3.491481e-015 1.000000e+000
      outer loop
         vertex -1.041889e+000 -5.908846e+000 1.200000e+002
         vertex -1.736482e+000 -9.848078e+000 1.200000e+002
         vertex 2.204364e-015 -6.000000e+000 1.200000e+002
      endloop
   endfacet
   facet normal 0.000000e+000 -3.491481e-015 1.000000e+000
      outer loop
         vertex 2.204364e-015 -6.000000e+000 1.200000e+002
         vertex -1.736482e+000 -9.848078e+000 1.200000e+002
         vertex 1.224647e-015 -1.000000e+001 1.200000e+002
      endloop
   endfacet
   facet normal 0.000000e+000 -3.491481e-015 1.000000e+000
      outer loop
         vertex 2.204364e-015 -6.000000e+000 1.200000e+002
         vertex 1.224647e-015 -1.000000e+001 1.200000e+002
         vertex 1.041889e+000 -5.908846e+000 1.200000e+002
      endloop
   endfacet
   facet normal 0.000000e+000 -3.491481e-015 1.000000e+000
      outer loop
         vertex 1.041889e+000 -5.908846e+000 1.200000e+002
         vertex 1.224647e-015 -1.000000e+001 1.200000e+002
         vertex 1.736482e+000 -9.848078e+000 1.200000e+002
      endloop
   endfacet
   facet normal 0.000000e+000 -3.491481e-015 1.000000e+000
      outer loop
         vertex 1.041889e+000 -5.908846e+000 1.200000e+002
         vertex 1.736482e+000 -9.848078e+000 1.200000e+002
         vertex 2.052121e+000 -5.638155e+000 1.200000e+002
      endloop
   endfacet
   facet normal 0.000000e+000 -3.491481e-015 1.000000e+000
      outer loop
         vertex 2.052121e+000 -5.638155e+000 1.200000e+002
         vertex 1.736482e+000 -9.848078e+000 1.200000e+002
         vertex 3.420201e+000 -9.396927e+000 1.200000e+002
      endloop
   endfacet
   facet normal 0.000000e+000 -3.491481e-015 1.000000e+000
      outer loop
         vertex 2.052121e+000 -5.638155e+000 1.200000e+002
         vertex 3.420201e+000 -9.396927e+000 1.200000e+002
         vertex 3.000000e+000 -5.196152e+000 1.200000e+002
      endloop
   endfacet
   facet normal 0.000000e+000 -3.491481e-015 1.000000e+000
      outer loop
         vertex 3.000000e+000 -5.196152e+000 1.200000e+002
         vertex 3.420201e+000 -9.396927e+000 1.200000e+002
         vertex 5.000000e+000 -8.660254e+000 1.200000e+002
      endloop
   endfacet
   facet normal 0.000000e+000 -3.491481e-015 1.000000e+000
      outer loop
         vertex 3.000000e+000 -5.196152e+000 1.200000e+002
         vertex 5.000000e+000 -8.660254e+000 1.200000e+002
         vertex 3.856726e+000 -4.596266e+000 1.200000e+002
      endloop
   endfacet
   facet normal 0.000000e+000 -3.491481e-015 1.000000e+000
      outer loop
         vertex 3.856726e+000 -4.596266e+000 1.200000e+002
         vertex 5.000000e+000 -8.660254e+000 1.200000e+002
         vertex 6.427876e+000 -7.660444e+000 1.200000e+002
      endloop
   endfacet
   facet normal 0.000000e+000 3.491481e-015 -1.000000e+000
      outer loop
         vertex 3.420201e+000 -9.396927e+000 -3.280919e-014
         vertex 1.736482e+000 -9.848078e+000 -3.438438e-014
         vertex 0.000000e+000 0.000000e+000 0.000000e+000
      endloop
   endfacet
   facet normal 0.000000e+000 3.491481e-015 -1.000000e+000
      outer loop
         vertex 0.000000e+000 0.000000e+000 0.000000e+000
         vertex 1.736482e+000 -9.848078e+000 -3.438438e-014
         vertex 3.673941e-015 -1.000000e+001 -3.491481e-014
      endloop
   endfacet
   facet normal 0.000000e+000 3.491481e-015 -1.000000e+000
      outer loop
         vertex 0.000000e+000 0.000000e+000 0.000000e+000
         vertex 3.673941e-015 -1.000000e+001 -3.491481e-014
         vertex -1.736482e+000 -9.848078e+000 -3.438438e-014
      endloop
   endfacet
   facet normal 0.000000e+000 3.491481e-015 -1.000000e+000
      outer loop
         vertex 7.660444e+000 -6.427876e+000 -2.244281e-014
         vertex 6.427876e+000 -7.660444e+000 -2.674630e-014
         vertex 0.000000e+000 0.000000e+000 0.000000e+000
      endloop
   endfacet
   facet normal 0.000000e+000 3.491481e-015 -1.000000e+000
      outer loop
         vertex 0.000000e+000 0.000000e+000 0.000000e+000
         vertex 6.427876e+000 -7.660444e+000 -2.674630e-014
         vertex 5.000000e+000 -8.660254e+000 -3.023711e-014
      endloop
   endfacet
   facet normal 0.000000e+000 3.491481e-015 -1.000000e+000
      outer loop
         vertex 0.000000e+000 0.000000e+000 0.000000e+000
         vertex 5.000000e+000 -8.660254e+000 -3.023711e-014
         vertex 3.420201e+000 -9.396927e+000 -3.280919e-014
      endloop
   endfacet
   facet normal 0.000000e+000 3.491481e-015 -1.000000e+000
      outer loop
         vertex 9.848078e+000 -1.736482e+000 -6.062894e-015
         vertex 9.396927e+000 -3.420201e+000 -1.194157e-014
         vertex 0.000000e+000 0.000000e+000 0.000000e+000
      endloop
   endfacet
   facet normal 0.000000e+000 3.491481e-015 -1.000000e+000
      outer loop
         vertex 0.000000e+000 0.000000e+000 0.000000e+000
         vertex 9.396927e+000 -3.420201e+000 -1.194157e-014
         vertex 8.660254e+000 -5.000000e+000 -1.745741e-014
      endloop
   endfacet
   facet normal 0.000000e+000 3.491481e-015 -1.000000e+000
      outer loop
         vertex 0.000000e+000 0.000000e+000 0.000000e+000
         vertex 8.660254e+000 -5.000000e+000 -1.745741e-014
         vertex 7.660444e+000 -6.427876e+000 -2.244281e-014
      endloop
   endfacet
   facet normal 0.000000e+000 3.491481e-015 -1.000000e+000
      outer loop
         vertex 9.396927e+000 3.420201e+000 1.194157e-014
         vertex 9.848078e+000 1.736482e+000 6.062894e-015
         vertex 0.000000e+000 0.000000e+000 0.000000e+000
      endloop
   endfacet
   facet normal 0.000000e+000 3.491481e-015 -1.000000e+000
      outer loop
         vertex 0.000000e+000 0.000000e+000 0.000000e+000
         vertex 9.848078e+000 1.736482e+000 6.062894e-015
         vertex 1.000000e+001 6.123234e-016 2.137916e-030
      endloop
   endfacet
   facet normal 0.000000e+000 3.491481e-015 -1.000000e+000
      outer loop
         vertex 0.000000e+000 0.000000e+000 0.000000e+000
         vertex 1.000000e+001 6.123234e-016 2.137916e-030
         vertex 9.848078e+000 -1.736482e+000 -6.062894e-015
      endloop
   endfacet
   facet normal 0.000000e+000 3.491481e-015 -1.000000e+000
      outer loop
         vertex 6.427876e+000 7.660444e+000 2.674630e-014
         vertex 7.660444e+000 6.427876e+000 2.244281e-014
         vertex 0.000000e+000 0.000000e+000 0.000000e+000
      endloop
   endfacet
   facet normal 0.000000e+000 3.491481e-015 -1.000000e+000
      outer loop
         vertex 0.000000e+000 0.000000e+000 0.000000e+000
         vertex 7.660444e+000 6.427876e+000 2.244281e-014
         vertex 8.660254e+000 5.000000e+000 1.745741e-014
      endloop
   endfacet
   facet normal 0.000000e+000 3.491481e-015 -1.000000e+000
      outer loop
         vertex 0.000000e+000 0.000000e+000 0.000000e+000
         vertex 8.660254e+000 5.000000e+000 1.745741e-014
         vertex 9.396927e+000 3.420201e+000 1.194157e-014
      endloop
   endfacet
   facet normal 0.000000e+000 3.491481e-015 -1.000000e+000
      outer loop
         vertex 1.736482e+000 9.848078e+000 3.438438e-014
         vertex 3.420201e+000 9.396927e+000 3.280919e-014
         vertex 0.000000e+000 0.000000e+000 0.000000e+000
      endloop
   endfacet
   facet normal 0.000000e+000 3.491481e-015 -1.000000e+000
      outer loop
         vertex 0.000000e+000 0.000000e+000 0.000000e+000
         vertex 3.420201e+000 9.396927e+000 3.280919e-014
         vertex 5.000000e+000 8.660254e+000 3.023711e-014
      endloop
   endfacet
   facet normal 0.000000e+000 3.491481e-015 -1.000000e+000
      outer loop
         vertex 0.000000e+000 0.000000e+000 0.000000e+000
         vertex 5.000000e+000 8.660254e+000 3.023711e-014
         vertex 6.427876e+000 7.660444e+000 2.674630e-014
      endloop
   endfacet
   facet normal 0.000000e+000 3.491481e-015 -1.000000e+000
      outer loop
         vertex -3.420201e+000 9.396927e+000 3.280919e-014
         vertex -1.736482e+000 9.848078e+000 3.438438e-014
         vertex 0.000000e+000 0.000000e+000 0.000000e+000
      endloop
   endfacet
   facet normal 0.000000e+000 3.491481e-015 -1.000000e+000
      outer loop
         vertex 0.000000e+000 0.000000e+000 0.000000e+000
         vertex -1.736482e+000 9.848078e+000 3.438438e-014
         vertex 0.000000e+000 1.000000e+001 3.491481e-014
      endloop
   endfacet
   facet normal 0.000000e+000 3.491481e-015 -1.000000e+000
      outer loop
         vertex 0.000000e+000 0.000000e+000 0.000000e+000
         vertex 0.000000e+000 1.000000e+001 3.491481e-014
         vertex 1.736482e+000 9.848078e+000 3.438438e-014
      endloop
   endfacet
   facet normal 0.000000e+000 3.491481e-015 -1.000000e+000
      outer loop
         vertex -7.660444e+000 6.427876e+000 2.244281e-014
         vertex -6.427876e+000 7.660444e+000 2.674630e-014
         vertex 0.000000e+000 0.000000e+000 0.000000e+000
      endloop
   endfacet
   facet normal 0.000000e+000 3.491481e-015 -1.000000e+000
      outer loop
         vertex 0.000000e+000 0.000000e+000 0.000000e+000
         vertex -6.427876e+000 7.660444e+000 2.674630e-014
         vertex -5.000000e+000 8.660254e+000 3.023711e-014
      endloop
   endfacet
   facet normal 0.000000e+000 3.491481e-015 -1.000000e+000
      outer loop
         vertex 0.000000e+000 0.000000e+000 0.000000e+000
         vertex -5.000000e+000 8.660254e+000 3.023711e-014
         vertex -3.420201e+000 9.396927e+000 3.280919e-014
      endloop
   endfacet
   facet normal 0.000000e+000 3.491481e-015 -1.000000e+000
      outer loop
         vertex -9.848078e+000 1.736482e+000 6.062894e-015
         vertex -9.396927e+000 3.420201e+000 1.194157e-014
         vertex 0.000000e+000 0.000000e+000 0.000000e+000
      endloop
   endfacet
   facet normal 0.000000e+000 3.491481e-015 -1.000000e+000
      outer loop
         vertex 0.000000e+000 0.000000e+000 0.000000e+000
         vertex -9.396927e+000 3.420201e+000 1.194157e-014
         vertex -8.660254e+000 5.000000e+000 1.745741e-014
      endloop
   endfacet
   facet normal 0.000000e+000 3.491481e-015 -1.000000e+000
      outer loop
         vertex 0.000000e+000 0.000000e+000 0.000000e+000
         vertex -8.660254e+000 5.000000e+000 1.745741e-014
         vertex -7.660444e+000 6.427876e+000 2.244281e-014
      endloop
   endfacet
   facet normal 0.000000e+000 3.491481e-015 -1.000000e+000
      outer loop
         vertex -9.396927e+000 -3.420201e+000 -1.194157e-014
         vertex -9.848078e+000 -1.736482e+000 -6.062894e-015
         vertex 0.000000e+000 0.000000e+000 0.000000e+000
      endloop
   endfacet
   facet normal 0.000000e+000 3.491481e-015 -1.000000e+000
      outer loop
         vertex 0.000000e+000 0.000000e+000 0.000000e+000
         vertex -9.848078e+000 -1.736482e+000 -6.062894e-015
         vertex -1.000000e+001 -1.836970e-015 -6.413747e-030
      endloop
   endfacet
   facet normal 0.000000e+000 3.491481e-015 -1.000000e+000
      outer loop
         vertex 0.000000e+000 0.000000e+000 0.000000e+000
         vertex -1.000000e+001 -1.836970e-015 -6.413747e-030
         vertex -9.848078e+000 1.736482e+000 6.062894e-015
      endloop
   endfacet
   facet normal 0.000000e+000 3.491481e-015 -1.000000e+000
      outer loop
         vertex -6.427876e+000 -7.660444e+000 -2.674630e-014
         vertex -7.660444e+000 -6.427876e+000 -2.244281e-014
         vertex 0.000000e+000 0.000000e+000 0.000000e+000
      endloop
   endfacet
   facet normal 0.000000e+000 3.491481e-015 -1.000000e+000
      outer loop
         vertex 0.000000e+000 0.000000e+000 0.000000e+000
         vertex -7.660444e+000 -6.427876e+000 -2.244281e-014
         vertex -8.660254e+000 -5.000000e+000 -1.745741e-014
      endloop
   endfacet
   facet normal 0.000000e+000 3.491481e-015 -1.000000e+000
      outer loop
         vertex 0.000000e+000 0.000000e+000 0.000000e+000
         vertex -8.660254e+000 -5.000000e+000 -1.745741e-014
         vertex -9.396927e+000 -3.420201e+000 -1.194157e-014
      endloop
   endfacet
   facet normal 0.000000e+000 3.491481e-015 -1.000000e+000
      outer loop
         vertex -1.736482e+000 -9.848078e+000 -3.438438e-014
         vertex -3.420201e+000 -9.396927e+000 -3.280919e-014
         vertex 0.000000e+000 0.000000e+000 0.000000e+000
      endloop
   endfacet
   facet normal 0.000000e+000 3.491481e-015 -1.000000e+000
      outer loop
         vertex 0.000000e+000 0.000000e+000 0.000000e+000
         vertex -3.420201e+000 -9.396927e+000 -3.280919e-014
         vertex -5.000000e+000 -8.660254e+000 -3.023711e-014
      endloop
   endfacet
   facet normal 0.000000e+000 3.491481e-015 -1.000000e+000
      outer loop
         vertex 0.000000e+000 0.000000e+000 0.000000e+000
         vertex -5.000000e+000 -8.660254e+000 -3.023711e-014
         vertex -6.427876e+000 -7.660444e+000 -2.674630e-014
      endloop
   endfacet
   facet normal 1.161583e-001 9.932307e-001 3.467847e-015
      outer loop
         vertex 0.000000e+000 6.000000e+000 1.200000e+002
         vertex 1.041889e+000 5.908846e+000 1.250000e+002
         vertex 1.041889e+000 5.908846e+000 1.200000e+002
      endloop
   endfacet
   facet normal 2.305519e-001 9.730600e-001 3.397421e-015
      outer loop
         vertex 1.041889e+000 5.908846e+000 1.200000e+002
         vertex 1.041889e+000 5.908846e+000 1.250000e+002
         vertex 2.052121e+000 5.638155e+000 1.250000e+002
      endloop
   endfacet
   facet normal 2.868663e-001 9.579706e-001 3.344737e-015
      outer loop
         vertex 1.041889e+000 5.908846e+000 1.200000e+002
         vertex 2.052121e+000 5.638155e+000 1.250000e+002
         vertex 2.052121e+000 5.638155e+000 1.200000e+002
      endloop
   endfacet
   facet normal 3.960194e-001 9.182422e-001 3.206025e-015
      outer loop
         vertex 2.052121e+000 5.638155e+000 1.200000e+002
         vertex 2.052121e+000 5.638155e+000 1.250000e+002
         vertex 3.000000e+000 5.196152e+000 1.250000e+002
      endloop
   endfacet
   facet normal 4.488580e-001 8.936031e-001 3.119998e-015
      outer loop
         vertex 2.052121e+000 5.638155e+000 1.200000e+002
         vertex 3.000000e+000 5.196152e+000 1.250000e+002
         vertex 3.000000e+000 5.196152e+000 1.200000e+002
      endloop
   endfacet
   facet normal 5.494540e-001 8.355240e-001 2.917216e-015
      outer loop
         vertex 3.000000e+000 5.196152e+000 1.200000e+002
         vertex 3.000000e+000 5.196152e+000 1.250000e+002
         vertex 3.856726e+000 4.596266e+000 1.250000e+002
      endloop
   endfacet
   facet normal 5.972114e-001 8.020838e-001 2.800461e-015
      outer loop
         vertex 3.000000e+000 5.196152e+000 1.200000e+002
         vertex 3.856726e+000 4.596266e+000 1.250000e+002
         vertex 3.856726e+000 4.596266e+000 1.200000e+002
      endloop
   endfacet
   facet normal 6.861938e-001 7.274188e-001 2.539769e-015
      outer loop
         vertex 3.856726e+000 4.596266e+000 1.200000e+002
         vertex 3.856726e+000 4.596266e+000 1.250000e+002
         vertex 4.596266e+000 3.856726e+000 1.250000e+002
      endloop
   endfacet
   facet normal 7.274188e-001 6.861938e-001 2.395833e-015
      outer loop
         vertex 3.856726e+000 4.596266e+000 1.200000e+002
         vertex 4.596266e+000 3.856726e+000 1.250000e+002
         vertex 4.596266e+000 3.856726e+000 1.200000e+002
      endloop
   endfacet
   facet normal 8.020838e-001 5.972114e-001 2.085152e-015
      outer loop
         vertex 4.596266e+000 3.856726e+000 1.200000e+002
         vertex 4.596266e+000 3.856726e+000 1.250000e+002
         vertex 5.196152e+000 3.000000e+000 1.250000e+002
      endloop
   endfacet
   facet normal 8.355240e-001 5.494540e-001 1.918408e-015
      outer loop
         vertex 4.596266e+000 3.856726e+000 1.200000e+002
         vertex 5.196152e+000 3.000000e+000 1.250000e+002
         vertex 5.196152e+000 3.000000e+000 1.200000e+002
      endloop
   endfacet
   facet normal 8.936031e-001 4.488580e-001 1.567179e-015
      outer loop
         vertex 5.196152e+000 3.000000e+000 1.200000e+002
         vertex 5.196152e+000 3.000000e+000 1.250000e+002
         vertex 5.638155e+000 2.052121e+000 1.250000e+002
      endloop
   endfacet
   facet normal 9.182422e-001 3.960194e-001 1.382694e-015
      outer loop
         vertex 5.196152e+000 3.000000e+000 1.200000e+002
         vertex 5.638155e+000 2.052121e+000 1.250000e+002
         vertex 5.638155e+000 2.052121e+000 1.200000e+002
      endloop
   endfacet
   facet normal 9.579706e-001 2.868663e-001 1.001588e-015
      outer loop
         vertex 5.638155e+000 2.052121e+000 1.200000e+002
         vertex 5.638155e+000 2.052121e+000 1.250000e+002
         vertex 5.908846e+000 1.041889e+000 1.250000e+002
      endloop
   endfacet
   facet normal 9.730600e-001 2.305519e-001 8.049675e-016
      outer loop
         vertex 5.638155e+000 2.052121e+000 1.200000e+002
         vertex 5.908846e+000 1.041889e+000 1.250000e+002
         vertex 5.908846e+000 1.041889e+000 1.200000e+002
      endloop
   endfacet
   facet normal 9.932307e-001 1.161583e-001 4.055644e-016
      outer loop
         vertex 5.908846e+000 1.041889e+000 1.200000e+002
         vertex 5.908846e+000 1.041889e+000 1.250000e+002
         vertex 6.000000e+000 -4.360678e-013 1.250000e+002
      endloop
   endfacet
   facet normal 9.983119e-001 5.807913e-002 2.027822e-016
      outer loop
         vertex 5.908846e+000 1.041889e+000 1.200000e+002
         vertex 6.000000e+000 -4.360678e-013 1.250000e+002
         vertex 6.000000e+000 -4.187206e-013 1.200000e+002
      endloop
   endfacet
   facet normal 9.983119e-001 -5.807913e-002 -2.027822e-016
      outer loop
         vertex 6.000000e+000 -4.187206e-013 1.200000e+002
         vertex 6.000000e+000 -4.360678e-013 1.250000e+002
         vertex 5.908846e+000 -1.041889e+000 1.250000e+002
      endloop
   endfacet
   facet normal 9.932307e-001 -1.161583e-001 -4.055644e-016
      outer loop
         vertex 6.000000e+000 -4.187206e-013 1.200000e+002
         vertex 5.908846e+000 -1.041889e+000 1.250000e+002
         vertex 5.908846e+000 -1.041889e+000 1.200000e+002
      endloop
   endfacet
   facet normal 9.730600e-001 -2.305519e-001 -8.049675e-016
      outer loop
         vertex 5.908846e+000 -1.041889e+000 1.200000e+002
         vertex 5.908846e+000 -1.041889e+000 1.250000e+002
         vertex 5.638155e+000 -2.052121e+000 1.250000e+002
      endloop
   endfacet
   facet normal 9.579706e-001 -2.868663e-001 -1.001588e-015
      outer loop
         vertex 5.908846e+000 -1.041889e+000 1.200000e+002
         vertex 5.638155e+000 -2.052121e+000 1.250000e+002
         vertex 5.638155e+000 -2.052121e+000 1.200000e+002
      endloop
   endfacet
   facet normal 9.182422e-001 -3.960194e-001 -1.382694e-015
      outer loop
         vertex 5.638155e+000 -2.052121e+000 1.200000e+002
         vertex 5.638155e+000 -2.052121e+000 1.250000e+002
         vertex 5.196152e+000 -3.000000e+000 1.250000e+002
      endloop
   endfacet
   facet normal 8.936031e-001 -4.488580e-001 -1.567179e-015
      outer loop
         vertex 5.638155e+000 -2.052121e+000 1.200000e+002
         vertex 5.196152e+000 -3.000000e+000 1.250000e+002
         vertex 5.196152e+000 -3.000000e+000 1.200000e+002
      endloop
   endfacet
   facet normal 8.355240e-001 -5.494540e-001 -1.918408e-015
      outer loop
         vertex 5.196152e+000 -3.000000e+000 1.200000e+002
         vertex 5.196152e+000 -3.000000e+000 1.250000e+002
         vertex 4.596266e+000 -3.856726e+000 1.250000e+002
      endloop
   endfacet
   facet normal 8.020838e-001 -5.972114e-001 -2.085152e-015
      outer loop
         vertex 5.196152e+000 -3.000000e+000 1.200000e+002
         vertex 4.596266e+000 -3.856726e+000 1.250000e+002
         vertex 4.596266e+000 -3.856726e+000 1.200000e+002
      endloop
   endfacet
   facet normal 7.274188e-001 -6.861938e-001 -2.395833e-015
      outer loop
         vertex 4.596266e+000 -3.856726e+000 1.200000e+002
         vertex 4.596266e+000 -3.856726e+000 1.250000e+002
         vertex 3.856726e+000 -4.596266e+000 1.250000e+002
      endloop
   endfacet
   facet normal 6.861938e-001 -7.274188e-001 -2.539769e-015
      outer loop
         vertex 4.596266e+000 -3.856726e+000 1.200000e+002
         vertex 3.856726e+000 -4.596266e+000 1.250000e+002
         vertex 3.856726e+000 -4.596266e+000 1.200000e+002
      endloop
   endfacet
   facet normal 5.972114e-001 -8.020838e-001 -2.800461e-015
      outer loop
         vertex 3.856726e+000 -4.596266e+000 1.200000e+002
         vertex 3.856726e+000 -4.596266e+000 1.250000e+002
         vertex 3.000000e+000 -5.196152e+000 1.250000e+002
      endloop
   endfacet
   facet normal 5.494540e-001 -8.355240e-001 -2.917216e-015
      outer loop
         vertex 3.856726e+000 -4.596266e+000 1.200000e+002
         vertex 3.000000e+000 -5.196152e+000 1.250000e+002
         vertex 3.000000e+000 -5.196152e+000 1.200000e+002
      endloop
   endfacet
   facet normal 4.488580e-001 -8.936031e-001 -3.119999e-015
      outer loop
         vertex 3.000000e+000 -5.196152e+000 1.200000e+002
         vertex 3.000000e+000 -5.196152e+000 1.250000e+002
         vertex 2.052121e+000 -5.638155e+000 1.250000e+002
      endloop
   endfacet
   facet normal 3.960194e-001 -9.182422e-001 -3.206026e-015
      outer loop
         vertex 3.000000e+000 -5.196152e+000 1.200000e+002
         vertex 2.052121e+000 -5.638155e+000 1.250000e+002
         vertex 2.052121e+000 -5.638155e+000 1.200000e+002
      endloop
   endfacet
   facet normal 2.868663e-001 -9.579706e-001 -3.344737e-015
      outer loop
         vertex 2.052121e+000 -5.638155e+000 1.200000e+002
         vertex 2.052121e+000 -5.638155e+000 1.250000e+002
         vertex 1.041889e+000 -5.908846e+000 1.250000e+002
      endloop
   endfacet
   facet normal 2.305519e-001 -9.730600e-001 -3.397421e-015
      outer loop
         vertex 2.052121e+000 -5.638155e+000 1.200000e+002
         vertex 1.041889e+000 -5.908846e+000 1.250000e+002
         vertex 1.041889e+000 -5.908846e+000 1.200000e+002
      endloop
   endfacet
   facet normal 1.161583e-001 -9.932307e-001 -3.467847e-015
      outer loop
         vertex 1.041889e+000 -5.908846e+000 1.200000e+002
         vertex 1.041889e+000 -5.908846e+000 1.250000e+002
         vertex 7.347881e-016 -6.000000e+000 1.250000e+002
      endloop
   endfacet
   facet normal 5.807913e-002 -9.983119e-001 -3.485587e-015
      outer loop
         vertex 1.041889e+000 -5.908846e+000 1.200000e+002
         vertex 7.347881e-016 -6.000000e+000 1.250000e+002
         vertex 7.347881e-016 -6.000000e+000 1.200000e+002
      endloop
   endfacet
   facet normal -5.807913e-002 -9.983119e-001 -3.485587e-015
      outer loop
         vertex 7.347881e-016 -6.000000e+000 1.200000e+002
         vertex 7.347881e-016 -6.000000e+000 1.250000e+002
         vertex -1.041889e+000 -5.908846e+000 1.250000e+002
      endloop
   endfacet
   facet normal -1.161583e-001 -9.932307e-001 -3.467847e-015
      outer loop
         vertex 7.347881e-016 -6.000000e+000 1.200000e+002
         vertex -1.041889e+000 -5.908846e+000 1.250000e+002
         vertex -1.041889e+000 -5.908846e+000 1.200000e+002
      endloop
   endfacet
   facet normal -2.305519e-001 -9.730600e-001 -3.397421e-015
      outer loop
         vertex -1.041889e+000 -5.908846e+000 1.200000e+002
         vertex -1.041889e+000 -5.908846e+000 1.250000e+002
         vertex -2.052121e+000 -5.638155e+000 1.250000e+002
      endloop
   endfacet
   facet normal -2.868663e-001 -9.579706e-001 -3.344737e-015
      outer loop
         vertex -1.041889e+000 -5.908846e+000 1.200000e+002
         vertex -2.052121e+000 -5.638155e+000 1.250000e+002
         vertex -2.052121e+000 -5.638155e+000 1.200000e+002
      endloop
   endfacet
   facet normal -3.960194e-001 -9.182422e-001 -3.206025e-015
      outer loop
         vertex -2.052121e+000 -5.638155e+000 1.200000e+002
         vertex -2.052121e+000 -5.638155e+000 1.250000e+002
         vertex -3.000000e+000 -5.196152e+000 1.250000e+002
      endloop
   endfacet
   facet normal -4.488580e-001 -8.936031e-001 -3.119998e-015
      outer loop
         vertex -2.052121e+000 -5.638155e+000 1.200000e+002
         vertex -3.000000e+000 -5.196152e+000 1.250000e+002
         vertex -3.000000e+000 -5.196152e+000 1.200000e+002
      endloop
   endfacet
   facet normal -5.494540e-001 -8.355240e-001 -2.917216e-015
      outer loop
         vertex -3.000000e+000 -5.196152e+000 1.200000e+002
         vertex -3.000000e+000 -5.196152e+000 1.250000e+002
         vertex -3.856726e+000 -4.596266e+000 1.250000e+002
      endloop
   endfacet
   facet normal -5.972114e-001 -8.020838e-001 -2.800461e-015
      outer loop
         vertex -3.000000e+000 -5.196152e+000 1.200000e+002
         vertex -3.856726e+000 -4.596266e+000 1.250000e+002
         vertex -3.856726e+000 -4.596266e+000 1.200000e+002
      endloop
   endfacet
   facet normal -6.861938e-001 -7.274188e-001 -2.539769e-015
      outer loop
         vertex -3.856726e+000 -4.596266e+000 1.200000e+002
         vertex -3.856726e+000 -4.596266e+000 1.250000e+002
         vertex -4.596266e+000 -3.856726e+000 1.250000e+002
      endloop
   endfacet
   facet normal -7.274188e-001 -6.861938e-001 -2.395833e-015
      outer loop
         vertex -3.856726e+000 -4.596266e+000 1.200000e+002
         vertex -4.596266e+000 -3.856726e+000 1.250000e+002
         vertex -4.596266e+000 -3.856726e+000 1.200000e+002
      endloop
   endfacet
   facet normal -8.020838e-001 -5.972114e-001 -2.085152e-015
      outer loop
         vertex -4.596266e+000 -3.856726e+000 1.200000e+002
         vertex -4.596266e+000 -3.856726e+000 1.250000e+002
         vertex -5.196152e+000 -3.000000e+000 1.250000e+002
      endloop
   endfacet
   facet normal -8.355240e-001 -5.494540e-001 -1.918408e-015
      outer loop
         vertex -4.596266e+000 -3.856726e+000 1.200000e+002
         vertex -5.196152e+000 -3.000000e+000 1.250000e+002
         vertex -5.196152e+000 -3.000000e+000 1.200000e+002
      endloop
   endfacet
   facet normal -8.936031e-001 -4.488580e-001 -1.567179e-015
      outer loop
         vertex -5.196152e+000 -3.000000e+000 1.200000e+002
         vertex -5.196152e+000 -3.000000e+000 1.250000e+002
         vertex -5.638155e+000 -2.052121e+000 1.250000e+002
      endloop
   endfacet
   facet normal -9.182422e-001 -3.960194e-001 -1.382694e-015
      outer loop
         vertex -5.196152e+000 -3.000000e+000 1.200000e+002
         vertex -5.638155e+000 -2.052121e+000 1.250000e+002
         vertex -5.638155e+000 -2.052121e+000 1.200000e+002
      endloop
   endfacet
   facet normal -9.579706e-001 -2.868663e-001 -1.001588e-015
      outer loop
         vertex -5.638155e+000 -2.052121e+000 1.200000e+002
         vertex -5.638155e+000 -2.052121e+000 1.250000e+002
         vertex -5.908846e+000 -1.041889e+000 1.250000e+002
      endloop
   endfacet
   facet normal -9.730600e-001 -2.305519e-001 -8.049675e-016
      outer loop
         vertex -5.638155e+000 -2.052121e+000 1.200000e+002
         vertex -5.908846e+000 -1.041889e+000 1.250000e+002
         vertex -5.908846e+000 -1.041889e+000 1.200000e+002
      endloop
   endfacet
   facet normal -9.932307e-001 -1.161583e-001 -4.055644e-016
      outer loop
         vertex -5.908846e+000 -1.041889e+000 1.200000e+002
         vertex -5.908846e+000 -1.041889e+000 1.250000e+002
         vertex -6.000000e+000 -4.375373e-013 1.250000e+002
      endloop
   endfacet
   facet normal -9.983119e-001 -5.807913e-002 -2.027822e-016
      outer loop
         vertex -5.908846e+000 -1.041889e+000 1.200000e+002
         vertex -6.000000e+000 -4.375373e-013 1.250000e+002
         vertex -6.000000e+000 -4.201901e-013 1.200000e+002
      endloop
   endfacet
   facet normal -9.983119e-001 5.807913e-002 2.027822e-016
      outer loop
         vertex -6.000000e+000 -4.201901e-013 1.200000e+002
         vertex -6.000000e+000 -4.375373e-013 1.250000e+002
         vertex -5.908846e+000 1.041889e+000 1.250000e+002
      endloop
   endfacet
   facet normal -9.932307e-001 1.161583e-001 4.055644e-016
      outer loop
         vertex -6.000000e+000 -4.201901e-013 1.200000e+002
         vertex -5.908846e+000 1.041889e+000 1.250000e+002
         vertex -5.908846e+000 1.041889e+000 1.200000e+002
      endloop
   endfacet
   facet normal -9.730600e-001 2.305519e-001 8.049675e-016
      outer loop
         vertex -5.908846e+000 1.041889e+000 1.200000e+002
         vertex -5.908846e+000 1.041889e+000 1.250000e+002
         vertex -5.638155e+000 2.052121e+000 1.250000e+002
      endloop
   endfacet
   facet normal -9.579706e-001 2.868663e-001 1.001588e-015
      outer loop
         vertex -5.908846e+000 1.041889e+000 1.200000e+002
         vertex -5.638155e+000 2.052121e+000 1.250000e+002
         vertex -5.638155e+000 2.052121e+000 1.200000e+002
      endloop
   endfacet
   facet normal -9.182422e-001 3.960194e-001 1.382694e-015
      outer loop
         vertex -5.638155e+000 2.052121e+000 1.200000e+002
         vertex -5.638155e+000 2.052121e+000 1.250000e+002
         vertex -5.196152e+000 3.000000e+000 1.250000e+002
      endloop
   endfacet
   facet normal -8.936031e-001 4.488580e-001 1.567179e-015
      outer loop
         vertex -5.638155e+000 2.052121e+000 1.200000e+002
         vertex -5.196152e+000 3.000000e+000 1.250000e+002
         vertex -5.196152e+000 3.000000e+000 1.200000e+002
      endloop
   endfacet
   facet normal -8.355240e-001 5.494540e-001 1.918408e-015
      outer loop
         vertex -5.196152e+000 3.000000e+000 1.200000e+002
         vertex -5.196152e+000 3.000000e+000 1.250000e+002
         vertex -4.596266e+000 3.856726e+000 1.250000e+002
      endloop
   endfacet
   facet normal -8.020838e-001 5.972114e-001 2.085152e-015
      outer loop
         vertex -5.196152e+000 3.000000e+000 1.200000e+002
         vertex -4.596266e+000 3.856726e+000 1.250000e+002
         vertex -4.596266e+000 3.856726e+000 1.200000e+002
      endloop
   endfacet
   facet normal -7.274188e-001 6.861938e-001 2.395833e-015
      outer loop
         vertex -4.596266e+000 3.856726e+000 1.200000e+002
         vertex -4.596266e+000 3.856726e+000 1.250000e+002
         vertex -3.856726e+000 4.596266e+000 1.250000e+002
      endloop
   endfacet
   facet normal -6.861938e-001 7.274188e-001 2.539769e-015
      outer loop
         vertex -4.596266e+000 3.856726e+000 1.200000e+002
         vertex -3.856726e+000 4.596266e+000 1.250000e+002
         vertex -3.856726e+000 4.596266e+000 1.200000e+002
      endloop
   endfacet
   facet normal -5.972114e-001 8.020838e-001 2.800461e-015
      outer loop
         vertex -3.856726e+000 4.596266e+000 1.200000e+002
         vertex -3.856726e+000 4.596266e+000 1.250000e+002
         vertex -3.000000e+000 5.196152e+000 1.250000e+002
      endloop
   endfacet
   facet normal -5.494540e-001 8.355240e-001 2.917216e-015
      outer loop
         vertex -3.856726e+000 4.596266e+000 1.200000e+002
         vertex -3.000000e+000 5.196152e+000 1.250000e+002
         vertex -3.000000e+000 5.196152e+000 1.200000e+002
      endloop
   endfacet
   facet normal -4.488580e-001 8.936031e-001 3.119999e-015
      outer loop
         vertex -3.000000e+000 5.196152e+000 1.200000e+002
         vertex -3.000000e+000 5.196152e+000 1.250000e+002
         vertex -2.052121e+000 5.638155e+000 1.250000e+002
      endloop
   endfacet
   facet normal -3.960194e-001 9.182422e-001 3.206026e-015
      outer loop
         vertex -3.000000e+000 5.196152e+000 1.200000e+002
         vertex -2.052121e+000 5.638155e+000 1.250000e+002
         vertex -2.052121e+000 5.638155e+000 1.200000e+002
      endloop
   endfacet
   facet normal -2.868663e-001 9.579706e-001 3.344737e-015
      outer loop
         vertex -2.052121e+000 5.638155e+000 1.200000e+002
         vertex -2.052121e+000 5.638155e+000 1.250000e+002
         vertex -1.041889e+000 5.908846e+000 1.250000e+002
      endloop
   endfacet
   facet normal -2.305519e-001 9.730600e-001 3.397421e-015
      outer loop
         vertex -2.052121e+000 5.638155e+000 1.200000e+002
         vertex -1.041889e+000 5.908846e+000 1.250000e+002
         vertex -1.041889e+000 5.908846e+000 1.200000e+002
      endloop
   endfacet
   facet normal -1.161583e-001 9.932307e-001 3.467847e-015
      outer loop
         vertex -1.041889e+000 5.908846e+000 1.200000e+002
         vertex -1.041889e+000 5.908846e+000 1.250000e+002
         vertex 0.000000e+000 6.000000e+000 1.250000e+002
      endloop
   endfacet
   facet normal -5.807913e-002 9.983119e-001 3.485587e-015
      outer loop
         vertex -1.041889e+000 5.908846e+000 1.200000e+002
         vertex 0.000000e+000 6.000000e+000 1.250000e+002
         vertex 0.000000e+000 6.000000e+000 1.200000e+002
      endloop
   endfacet
   facet normal 5.807913e-002 9.983119e-001 3.485587e-015
      outer loop
         vertex 0.000000e+000 6.000000e+000 1.200000e+002
         vertex 0.000000e+000 6.000000e+000 1.250000e+002
         vertex 1.041889e+000 5.908846e+000 1.250000e+002
      endloop
   endfacet
   facet normal 0.000000e+000 -3.491481e-015 1.000000e+000
      outer loop
         vertex -2.052121e+000 -5.638155e+000 1.250000e+002
         vertex -1.041889e+000 -5.908846e+000 1.250000e+002
         vertex 0.000000e+000 -4.364351e-013 1.250000e+002
      endloop
   endfacet
   facet normal 0.000000e+000 -3.491481e-015 1.000000e+000
      outer loop
         vertex 0.000000e+000 -4.364351e-013 1.250000e+002
         vertex -1.041889e+000 -5.908846e+000 1.250000e+002
         vertex 7.347881e-016 -6.000000e+000 1.250000e+002
      endloop
   endfacet
   facet normal 0.000000e+000 -3.491481e-015 1.000000e+000
      outer loop
         vertex 0.000000e+000 -4.364351e-013 1.250000e+002
         vertex 7.347881e-016 -6.000000e+000 1.250000e+002
         vertex 1.041889e+000 -5.908846e+000 1.250000e+002
      endloop
   endfacet
   facet normal 0.000000e+000 -3.491481e-015 1.000000e+000
      outer loop
         vertex -4.596266e+000 -3.856726e+000 1.250000e+002
         vertex -3.856726e+000 -4.596266e+000 1.250000e+002
         vertex 0.000000e+000 -4.364351e-013 1.250000e+002
      endloop
   endfacet
   facet normal 0.000000e+000 -3.491481e-015 1.000000e+000
      outer loop
         vertex 0.000000e+000 -4.364351e-013 1.250000e+002
         vertex -3.856726e+000 -4.596266e+000 1.250000e+002
         vertex -3.000000e+000 -5.196152e+000 1.250000e+002
      endloop
   endfacet
   facet normal 0.000000e+000 -3.491481e-015 1.000000e+000
      outer loop
         vertex 0.000000e+000 -4.364351e-013 1.250000e+002
         vertex -3.000000e+000 -5.196152e+000 1.250000e+002
         vertex -2.052121e+000 -5.638155e+000 1.250000e+002
      endloop
   endfacet
   facet normal 0.000000e+000 -3.491481e-015 1.000000e+000
      outer loop
         vertex -5.908846e+000 -1.041889e+000 1.250000e+002
         vertex -5.638155e+000 -2.052121e+000 1.250000e+002
         vertex 0.000000e+000 -4.364351e-013 1.250000e+002
      endloop
   endfacet
   facet normal 0.000000e+000 -3.491481e-015 1.000000e+000
      outer loop
         vertex 0.000000e+000 -4.364351e-013 1.250000e+002
         vertex -5.638155e+000 -2.052121e+000 1.250000e+002
         vertex -5.196152e+000 -3.000000e+000 1.250000e+002
      endloop
   endfacet
   facet normal 0.000000e+000 -3.491481e-015 1.000000e+000
      outer loop
         vertex 0.000000e+000 -4.364351e-013 1.250000e+002
         vertex -5.196152e+000 -3.000000e+000 1.250000e+002
         vertex -4.596266e+000 -3.856726e+000 1.250000e+002
      endloop
   endfacet
   facet normal 0.000000e+000 -3.491481e-015 1.000000e+000
      outer loop
         vertex -5.638155e+000 2.052121e+000 1.250000e+002
         vertex -5.908846e+000 1.041889e+000 1.250000e+002
         vertex 0.000000e+000 -4.364351e-013 1.250000e+002
      endloop
   endfacet
   facet normal 0.000000e+000 -3.491481e-015 1.000000e+000
      outer loop
         vertex 0.000000e+000 -4.364351e-013 1.250000e+002
         vertex -5.908846e+000 1.041889e+000 1.250000e+002
         vertex -6.000000e+000 -4.375373e-013 1.250000e+002
      endloop
   endfacet
   facet normal 0.000000e+000 -3.491481e-015 1.000000e+000
      outer loop
         vertex 0.000000e+000 -4.364351e-013 1.250000e+002
         vertex -6.000000e+000 -4.375373e-013 1.250000e+002
         vertex -5.908846e+000 -1.041889e+000 1.250000e+002
      endloop
   endfacet
   facet normal 0.000000e+000 -3.491481e-015 1.000000e+000
      outer loop
         vertex -3.856726e+000 4.596266e+000 1.250000e+002
         vertex -4.596266e+000 3.856726e+000 1.250000e+002
         vertex 0.000000e+000 -4.364351e-013 1.250000e+002
      endloop
   endfacet
   facet normal 0.000000e+000 -3.491481e-015 1.000000e+000
      outer loop
         vertex 0.000000e+000 -4.364351e-013 1.250000e+002
         vertex -4.596266e+000 3.856726e+000 1.250000e+002
         vertex -5.196152e+000 3.000000e+000 1.250000e+002
      endloop
   endfacet
   facet normal 0.000000e+000 -3.491481e-015 1.000000e+000
      outer loop
         vertex 0.000000e+000 -4.364351e-013 1.250000e+002
         vertex -5.196152e+000 3.000000e+000 1.250000e+002
         vertex -5.638155e+000 2.052121e+000 1.250000e+002
      endloop
   endfacet
   facet normal 0.000000e+000 -3.491481e-015 1.000000e+000
      outer loop
         vertex -1.041889e+000 5.908846e+000 1.250000e+002
         vertex -2.052121e+000 5.638155e+000 1.250000e+002
         vertex 0.000000e+000 -4.364351e-013 1.250000e+002
      endloop
   endfacet
   facet normal 0.000000e+000 -3.491481e-015 1.000000e+000
      outer loop
         vertex 0.000000e+000 -4.364351e-013 1.250000e+002
         vertex -2.052121e+000 5.638155e+000 1.250000e+002
         vertex -3.000000e+000 5.196152e+000 1.250000e+002
      endloop
   endfacet
   facet normal 0.000000e+000 -3.491481e-015 1.000000e+000
      outer loop
         vertex 0.000000e+000 -4.364351e-013 1.250000e+002
         vertex -3.000000e+000 5.196152e+000 1.250000e+002
         vertex -3.856726e+000 4.596266e+000 1.250000e+002
      endloop
   endfacet
   facet normal 0.000000e+000 -3.491481e-015 1.000000e+000
      outer loop
         vertex 2.052121e+000 5.638155e+000 1.250000e+002
         vertex 1.041889e+000 5.908846e+000 1.250000e+002
         vertex 0.000000e+000 -4.364351e-013 1.250000e+002
      endloop
   endfacet
   facet normal 0.000000e+000 -3.491481e-015 1.000000e+000
      outer loop
         vertex 0.000000e+000 -4.364351e-013 1.250000e+002
         vertex 1.041889e+000 5.908846e+000 1.250000e+002
         vertex 0.000000e+000 6.000000e+000 1.250000e+002
      endloop
   endfacet
   facet normal 0.000000e+000 -3.491481e-015 1.000000e+000
      outer loop
         vertex 0.000000e+000 -4.364351e-013 1.250000e+002
         vertex 0.000000e+000 6.000000e+000 1.250000e+002
         vertex -1.041889e+000 5.908846e+000 1.250000e+002
      endloop
   endfacet
   facet normal 0.000000e+000 -3.491481e-015 1.000000e+000
      outer loop
         vertex 4.596266e+000 3.856726e+000 1.250000e+002
         vertex 3.856726e+000 4.596266e+000 1.250000e+002
         vertex 0.000000e+000 -4.364351e-013 1.250000e+002
      endloop
   endfacet
   facet normal 0.000000e+000 -3.491481e-015 1.000000e+000
      outer loop
         vertex 0.000000e+000 -4.364351e-013 1.250000e+002
         vertex 3.856726e+000 4.596266e+000 1.250000e+002
         vertex 3.000000e+000 5.196152e+000 1.250000e+002
      endloop
   endfacet
   facet normal 0.000000e+000 -3.491481e-015 1.000000e+000
      outer loop
         vertex 0.000000e+000 -4.364351e-013 1.250000e+002
         vertex 3.000000e+000 5.196152e+000 1.250000e+002
         vertex 2.052121e+000 5.638155e+000 1.250000e+002
      endloop
   endfacet
   facet normal 0.000000e+000 -3.491481e-015 1.000000e+000
      outer loop
         vertex 5.908846e+000 1.041889e+000 1.250000e+002
         vertex 5.638155e+000 2.052121e+000 1.250000e+002
         vertex 0.000000e+000 -4.364351e-013 1.250000e+002
      endloop
   endfacet
   facet normal 0.000000e+000 -3.491481e-015 1.000000e+000
      outer loop
         vertex 0.000000e+000 -4.364351e-013 1.250000e+002
         vertex 5.638155e+000 2.052121e+000 1.250000e+002
         vertex 5.196152e+000 3.000000e+000 1.250000e+002
      endloop
   endfacet
   facet normal 0.000000e+000 -3.491481e-015 1.000000e+000
      outer loop
         vertex 0.000000e+000 -4.364351e-013 1.250000e+002
         vertex 5.196152e+000 3.000000e+000 1.250000e+002
         vertex 4.596266e+000 3.856726e+000 1.250000e+002
      endloop
   endfacet
   facet normal 0.000000e+000 -3.491481e-015 1.000000e+000
      outer loop
         vertex 5.638155e+000 -2.052121e+000 1.250000e+002
         vertex 5.908846e+000 -1.041889e+000 1.250000e+002
         vertex 0.000000e+000 -4.364351e-013 1.250000e+002
      endloop
   endfacet
   facet normal 0.000000e+000 -3.491481e-015 1.000000e+000
      outer loop
         vertex 0.000000e+000 -4.364351e-013 1.250000e+002
         vertex 5.908846e+000 -1.041889e+000 1.250000e+002
         vertex 6.000000e+000 -4.360678e-013 1.250000e+002
      endloop
   endfacet
   facet normal 0.000000e+000 -3.491481e-015 1.000000e+000
      outer loop
         vertex 0.000000e+000 -4.364351e-013 1.250000e+002
         vertex 6.000000e+000 -4.360678e-013 1.250000e+002
         vertex 5.908846e+000 1.041889e+000 1.250000e+002
      endloop
   endfacet
   facet normal 0.000000e+000 -3.491481e-015 1.000000e+000
      outer loop
         vertex 3.856726e+000 -4.596266e+000 1.250000e+002
         vertex 4.596266e+000 -3.856726e+000 1.250000e+002
         vertex 0.000000e+000 -4.364351e-013 1.250000e+002
      endloop
   endfacet
   facet normal 0.000000e+000 -3.491481e-015 1.000000e+000
      outer loop
         vertex 0.000000e+000 -4.364351e-013 1.250000e+002
         vertex 4.596266e+000 -3.856726e+000 1.250000e+002
         vertex 5.196152e+000 -3.000000e+000 1.250000e+002
      endloop
   endfacet
   facet normal 0.000000e+000 -3.491481e-015 1.000000e+000
      outer loop
         vertex 0.000000e+000 -4.364351e-013 1.250000e+002
         vertex 5.196152e+000 -3.000000e+000 1.250000e+002
         vertex 5.638155e+000 -2.052121e+000 1.250000e+002
      endloop
   endfacet
   facet normal 0.000000e+000 -3.491481e-015 1.000000e+000
      outer loop
         vertex 1.041889e+000 -5.908846e+000 1.250000e+002
         vertex 2.052121e+000 -5.638155e+000 1.250000e+002
         vertex 0.000000e+000 -4.364351e-013 1.250000e+002
      endloop
   endfacet
   facet normal 0.000000e+000 -3.491481e-015 1.000000e+000
      outer loop
         vertex 0.000000e+000 -4.364351e-013 1.250000e+002
         vertex 2.052121e+000 -5.638155e+000 1.250000e+002
         vertex 3.000000e+000 -5.196152e+000 1.250000e+002
      endloop
   endfacet
   facet normal 0.000000e+000 -3.491481e-015 1.000000e+000
      outer loop
         vertex 0.000000e+000 -4.364351e-013 1.250000e+002
         vertex 3.000000e+000 -5.196152e+000 1.250000e+002
         vertex 3.856726e+000 -4.596266e+000 1.250000e+002
      endloop
   endfacet
endsolid